<?xml version="1.0" encoding="UTF-8"?>
<svg xmlns="http://www.w3.org/2000/svg" xmlns:xlink="http://www.w3.org/1999/xlink" width="95.9pt" height="96.79pt" viewBox="0 0 95.9 96.79" version="1.1">
<defs>
<clipPath id="clip1">
  <path d="M 91 58 L 95.898438 58 L 95.898438 64 L 91 64 Z M 91 58 "/>
</clipPath>
<clipPath id="clip2">
  <path d="M 45 51 L 46 51 L 46 96.789062 L 45 96.789062 Z M 45 51 "/>
</clipPath>
</defs>
<g id="surface1">
<path style="fill:none;stroke-width:5;stroke-linecap:round;stroke-linejoin:round;stroke:rgb(0%,0%,0%);stroke-opacity:1;stroke-miterlimit:10;" d="M 452.851562 455.321875 L 230.976562 274.189063 " transform="matrix(0.1,0,0,-0.1,0,96.79)"/>
<path style=" stroke:none;fill-rule:nonzero;fill:rgb(0%,0%,0%);fill-opacity:1;" d="M 20.859375 70.886719 C 20.507812 70.976562 20.492188 71.285156 20.492188 71.316406 C 20.492188 71.492188 20.628906 71.609375 20.804688 71.609375 C 20.976562 71.609375 21.246094 71.476562 21.246094 71.132812 C 21.246094 70.679688 20.746094 70.554688 20.453125 70.554688 C 20.078125 70.554688 19.777344 70.816406 19.59375 71.125 C 19.421875 70.703125 19.007812 70.554688 18.679688 70.554688 C 17.8125 70.554688 17.328125 71.546875 17.328125 71.769531 C 17.328125 71.839844 17.386719 71.871094 17.449219 71.871094 C 17.542969 71.871094 17.558594 71.832031 17.585938 71.738281 C 17.765625 71.15625 18.242188 70.773438 18.65625 70.773438 C 18.96875 70.773438 19.117188 71 19.117188 71.285156 C 19.117188 71.445312 19.023438 71.808594 18.960938 72.0625 C 18.902344 72.292969 18.726562 73 18.6875 73.152344 C 18.578125 73.582031 18.289062 73.914062 17.933594 73.914062 C 17.902344 73.914062 17.695312 73.914062 17.527344 73.804688 C 17.894531 73.714844 17.894531 73.382812 17.894531 73.375 C 17.894531 73.191406 17.75 73.078125 17.578125 73.078125 C 17.359375 73.078125 17.132812 73.261719 17.132812 73.566406 C 17.132812 73.929688 17.519531 74.136719 17.925781 74.136719 C 18.347656 74.136719 18.640625 73.820312 18.785156 73.566406 C 18.960938 73.953125 19.324219 74.136719 19.707031 74.136719 C 20.570312 74.136719 21.046875 73.144531 21.046875 72.921875 C 21.046875 72.84375 20.984375 72.820312 20.929688 72.820312 C 20.835938 72.820312 20.820312 72.875 20.792969 72.953125 C 20.636719 73.484375 20.183594 73.914062 19.722656 73.914062 C 19.460938 73.914062 19.269531 73.742188 19.269531 73.40625 C 19.269531 73.246094 19.316406 73.0625 19.429688 72.617188 C 19.484375 72.382812 19.65625 71.679688 19.699219 71.53125 C 19.808594 71.117188 20.085938 70.773438 20.445312 70.773438 C 20.484375 70.773438 20.691406 70.773438 20.859375 70.886719 "/>
<path style="fill:none;stroke-width:5;stroke-linecap:round;stroke-linejoin:round;stroke:rgb(50%,50%,50%);stroke-opacity:1;stroke-miterlimit:10;" d="M 674.6875 636.49375 L 452.851562 455.321875 " transform="matrix(0.1,0,0,-0.1,0,96.79)"/>
<path style="fill:none;stroke-width:5;stroke-linecap:round;stroke-linejoin:round;stroke:rgb(0%,0%,0%);stroke-opacity:1;stroke-miterlimit:10;" d="M 452.851562 455.321875 L 896.523438 364.775 " transform="matrix(0.1,0,0,-0.1,0,96.79)"/>
<g clip-path="url(#clip1)" clip-rule="nonzero">
<path style=" stroke:none;fill-rule:nonzero;fill:rgb(0%,0%,0%);fill-opacity:1;" d="M 95.875 59.261719 C 95.90625 59.148438 95.90625 59.132812 95.90625 59.078125 C 95.90625 58.878906 95.746094 58.832031 95.648438 58.832031 C 95.609375 58.832031 95.429688 58.839844 95.324219 59.042969 C 95.308594 59.085938 95.238281 59.371094 95.195312 59.539062 L 94.71875 61.445312 C 94.710938 61.46875 94.371094 62.113281 93.789062 62.113281 C 93.402344 62.113281 93.265625 61.824219 93.265625 61.46875 C 93.265625 61.007812 93.535156 60.300781 93.71875 59.839844 C 93.796875 59.640625 93.820312 59.570312 93.820312 59.425781 C 93.820312 58.988281 93.472656 58.75 93.109375 58.75 C 92.320312 58.75 91.996094 59.871094 91.996094 59.964844 C 91.996094 60.039062 92.050781 60.070312 92.113281 60.070312 C 92.21875 60.070312 92.226562 60.023438 92.25 59.941406 C 92.457031 59.25 92.796875 58.972656 93.082031 58.972656 C 93.203125 58.972656 93.273438 59.050781 93.273438 59.234375 C 93.273438 59.402344 93.210938 59.585938 93.15625 59.730469 C 92.828125 60.570312 92.695312 60.976562 92.695312 61.347656 C 92.695312 62.128906 93.28125 62.335938 93.75 62.335938 C 94.125 62.335938 94.394531 62.167969 94.585938 61.984375 C 94.472656 62.429688 94.394531 62.738281 94.09375 63.121094 C 93.828125 63.449219 93.511719 63.652344 93.15625 63.652344 C 93.019531 63.652344 92.71875 63.628906 92.558594 63.390625 C 92.980469 63.359375 93.011719 63.003906 93.011719 62.957031 C 93.011719 62.765625 92.867188 62.660156 92.703125 62.660156 C 92.527344 62.660156 92.25 62.796875 92.25 63.183594 C 92.25 63.558594 92.589844 63.878906 93.15625 63.878906 C 93.964844 63.878906 94.878906 63.222656 95.117188 62.261719 L 95.875 59.261719 "/>
</g>
<path style="fill:none;stroke-width:5;stroke-linecap:round;stroke-linejoin:round;stroke:rgb(50%,50%,50%);stroke-opacity:1;stroke-miterlimit:10;" d="M 9.140625 545.907813 L 452.851562 455.321875 " transform="matrix(0.1,0,0,-0.1,0,96.79)"/>
<path style="fill:none;stroke-width:5;stroke-linecap:round;stroke-linejoin:round;stroke:rgb(0%,0%,0%);stroke-opacity:1;stroke-miterlimit:10;" d="M 452.851562 455.321875 L 452.851562 908.173438 " transform="matrix(0.1,0,0,-0.1,0,96.79)"/>
<path style=" stroke:none;fill-rule:nonzero;fill:rgb(0%,0%,0%);fill-opacity:1;" d="M 44.3125 2.808594 C 44.601562 2.515625 44.6875 2.425781 45.386719 1.847656 C 45.472656 1.777344 46.03125 1.316406 46.246094 1.109375 C 46.746094 0.617188 47.054688 0.179688 47.054688 0.0898438 C 47.054688 0.0195312 46.992188 -0.00390625 46.9375 -0.00390625 C 46.855469 -0.00390625 46.847656 0.0117188 46.769531 0.132812 C 46.523438 0.496094 46.347656 0.558594 46.207031 0.558594 C 46.054688 0.558594 45.957031 0.496094 45.800781 0.339844 C 45.59375 0.140625 45.433594 -0.00390625 45.179688 -0.00390625 C 44.542969 -0.00390625 44.148438 0.710938 44.148438 0.925781 C 44.148438 0.933594 44.148438 1.019531 44.273438 1.019531 C 44.355469 1.019531 44.371094 0.988281 44.402344 0.902344 C 44.503906 0.671875 44.847656 0.59375 45.085938 0.59375 C 45.269531 0.59375 45.457031 0.640625 45.648438 0.695312 C 45.984375 0.785156 46.054688 0.785156 46.238281 0.785156 C 46.070312 0.957031 45.847656 1.179688 45.234375 1.679688 C 44.902344 1.957031 44.566406 2.230469 44.355469 2.433594 C 43.765625 3.015625 43.511719 3.40625 43.511719 3.484375 C 43.511719 3.558594 43.566406 3.582031 43.628906 3.582031 C 43.710938 3.582031 43.726562 3.558594 43.765625 3.5 C 43.925781 3.261719 44.171875 3.015625 44.472656 3.015625 C 44.65625 3.015625 44.734375 3.089844 44.886719 3.238281 C 45.140625 3.484375 45.285156 3.582031 45.511719 3.582031 C 46.339844 3.582031 46.839844 2.59375 46.839844 2.347656 C 46.839844 2.277344 46.785156 2.246094 46.722656 2.246094 C 46.636719 2.246094 46.617188 2.292969 46.585938 2.371094 C 46.433594 2.769531 46 2.984375 45.601562 2.984375 C 45.449219 2.984375 45.277344 2.945312 45.035156 2.878906 C 44.703125 2.792969 44.625 2.792969 44.503906 2.792969 C 44.425781 2.792969 44.378906 2.792969 44.3125 2.808594 "/>
<g clip-path="url(#clip2)" clip-rule="nonzero">
<path style="fill:none;stroke-width:5;stroke-linecap:round;stroke-linejoin:round;stroke:rgb(50%,50%,50%);stroke-opacity:1;stroke-miterlimit:10;" d="M 452.851562 2.509375 L 452.851562 455.321875 " transform="matrix(0.1,0,0,-0.1,0,96.79)"/>
</g>
<path style="fill:none;stroke-width:15;stroke-linecap:round;stroke-linejoin:round;stroke:rgb(100%,25%,25%);stroke-opacity:1;stroke-dasharray:15.4159,23.1238;stroke-miterlimit:10;" d="M 452.851562 455.321875 L 452.851562 817.626563 " transform="matrix(0.1,0,0,-0.1,0,96.79)"/>
<path style=" stroke:none;fill-rule:nonzero;fill:rgb(100%,25%,25%);fill-opacity:1;" d="M 51.007812 10.046875 C 51.007812 9.867188 50.984375 9.867188 50.808594 9.867188 C 50.414062 10.246094 49.804688 10.246094 49.59375 10.246094 L 49.59375 10.480469 C 49.746094 10.480469 50.140625 10.480469 50.496094 10.3125 L 50.496094 13.324219 C 50.496094 13.519531 50.496094 13.597656 49.882812 13.597656 L 49.625 13.597656 L 49.625 13.832031 C 49.953125 13.808594 50.417969 13.808594 50.753906 13.808594 C 51.085938 13.808594 51.550781 13.808594 51.878906 13.832031 L 51.878906 13.597656 L 51.621094 13.597656 C 51.007812 13.597656 51.007812 13.519531 51.007812 13.324219 Z M 48.871094 15.269531 L 52.589844 15.269531 L 52.589844 14.789062 L 48.871094 14.789062 Z M 52.078125 19.078125 L 51.855469 19.078125 C 51.84375 19.160156 51.785156 19.554688 51.695312 19.617188 C 51.652344 19.65625 51.167969 19.65625 51.085938 19.65625 L 49.972656 19.65625 L 50.734375 19.035156 C 50.9375 18.875 51.46875 18.492188 51.652344 18.3125 C 51.832031 18.132812 52.078125 17.828125 52.078125 17.40625 C 52.078125 16.664062 51.402344 16.226562 50.605469 16.226562 C 49.835938 16.226562 49.300781 16.734375 49.300781 17.292969 C 49.300781 17.597656 49.554688 17.632812 49.621094 17.632812 C 49.769531 17.632812 49.945312 17.527344 49.945312 17.3125 C 49.945312 17.179688 49.863281 16.992188 49.601562 16.992188 C 49.738281 16.6875 50.105469 16.460938 50.515625 16.460938 C 51.140625 16.460938 51.472656 16.925781 51.472656 17.40625 C 51.472656 17.828125 51.195312 18.265625 50.777344 18.648438 L 49.363281 19.941406 C 49.304688 20 49.300781 20.007812 49.300781 20.191406 L 51.890625 20.191406 Z M 55.015625 16.441406 C 54.941406 16.746094 54.925781 16.808594 54.335938 16.808594 C 54.1875 16.808594 54.09375 16.808594 54.09375 16.960938 C 54.09375 17.070312 54.195312 17.070312 54.328125 17.070312 L 57.277344 17.070312 C 58.589844 17.070312 59.566406 16.140625 59.566406 15.371094 C 59.566406 14.789062 59.066406 14.320312 58.273438 14.234375 C 59.195312 14.058594 59.988281 13.457031 59.988281 12.753906 C 59.988281 12.160156 59.40625 11.644531 58.40625 11.644531 L 55.632812 11.644531 C 55.488281 11.644531 55.386719 11.644531 55.386719 11.792969 C 55.386719 11.90625 55.480469 11.90625 55.617188 11.90625 C 55.878906 11.90625 56.109375 11.90625 56.109375 12.03125 C 56.109375 12.066406 56.101562 12.074219 56.078125 12.175781 Z M 56.253906 14.136719 L 56.738281 12.199219 C 56.808594 11.929688 56.816406 11.90625 57.144531 11.90625 L 58.285156 11.90625 C 59.066406 11.90625 59.238281 12.414062 59.238281 12.738281 C 59.238281 13.414062 58.515625 14.136719 57.5 14.136719 Z M 55.703125 16.808594 C 55.632812 16.792969 55.609375 16.792969 55.609375 16.738281 C 55.609375 16.675781 55.625 16.609375 55.640625 16.5625 L 56.195312 14.363281 L 57.808594 14.363281 C 58.550781 14.363281 58.796875 14.863281 58.796875 15.308594 C 58.796875 16.085938 58.03125 16.808594 57.078125 16.808594 Z M 63.804688 14.785156 C 63.851562 14.59375 63.863281 14.558594 64.183594 14.558594 C 64.28125 14.558594 64.363281 14.558594 64.363281 14.410156 C 64.363281 14.367188 64.328125 14.320312 64.273438 14.320312 C 64.164062 14.320312 64.039062 14.335938 63.933594 14.335938 C 63.820312 14.335938 63.707031 14.34375 63.589844 14.34375 C 63.433594 14.34375 63.25 14.34375 63.09375 14.335938 C 62.949219 14.332031 62.78125 14.320312 62.640625 14.320312 C 62.597656 14.320312 62.5625 14.320312 62.535156 14.355469 C 62.519531 14.378906 62.496094 14.457031 62.496094 14.476562 C 62.515625 14.558594 62.5625 14.558594 62.71875 14.558594 C 62.859375 14.558594 62.910156 14.558594 63.066406 14.570312 C 63.195312 14.582031 63.265625 14.585938 63.265625 14.664062 C 63.265625 14.695312 63.253906 14.738281 63.242188 14.777344 L 62.5625 17.496094 C 62.4375 17.992188 62.027344 18.320312 61.652344 18.320312 C 61.566406 18.320312 61.199219 18.308594 61.039062 18.046875 C 61.378906 18.015625 61.4375 17.742188 61.4375 17.644531 C 61.4375 17.507812 61.339844 17.382812 61.15625 17.382812 C 60.921875 17.382812 60.746094 17.570312 60.746094 17.855469 C 60.746094 18.234375 61.109375 18.515625 61.664062 18.515625 C 62.308594 18.515625 62.96875 18.109375 63.105469 17.554688 L 63.804688 14.785156 "/>
<path style="fill:none;stroke-width:15;stroke-linecap:round;stroke-linejoin:round;stroke:rgb(0%,50%,100%);stroke-opacity:1;stroke-dasharray:15.4159,23.1238;stroke-miterlimit:10;" d="M 452.851562 455.321875 L 452.851562 93.05625 " transform="matrix(0.1,0,0,-0.1,0,96.79)"/>
<path style=" stroke:none;fill-rule:nonzero;fill:rgb(0%,50%,100%);fill-opacity:1;" d="M 53.722656 87.722656 C 53.851562 87.722656 54.027344 87.722656 54.027344 87.539062 C 54.027344 87.355469 53.851562 87.355469 53.722656 87.355469 L 49.171875 87.355469 C 49.042969 87.355469 48.871094 87.355469 48.871094 87.539062 C 48.871094 87.722656 49.042969 87.722656 49.171875 87.722656 Z M 58.109375 82.5 C 58.109375 82.320312 58.085938 82.320312 57.90625 82.320312 C 57.515625 82.703125 56.90625 82.703125 56.691406 82.703125 L 56.691406 82.933594 C 56.847656 82.933594 57.238281 82.933594 57.597656 82.769531 L 57.597656 85.777344 C 57.597656 85.976562 57.597656 86.050781 56.980469 86.050781 L 56.726562 86.050781 L 56.726562 86.285156 C 57.054688 86.261719 57.519531 86.261719 57.851562 86.261719 C 58.1875 86.261719 58.652344 86.261719 58.980469 86.285156 L 58.980469 86.050781 L 58.722656 86.050781 C 58.109375 86.050781 58.109375 85.976562 58.109375 85.777344 Z M 55.96875 87.726562 L 59.691406 87.726562 L 59.691406 87.246094 L 55.96875 87.246094 Z M 59.175781 91.53125 L 58.957031 91.53125 C 58.945312 91.613281 58.882812 92.007812 58.792969 92.074219 C 58.753906 92.109375 58.269531 92.109375 58.1875 92.109375 L 57.074219 92.109375 L 57.835938 91.488281 C 58.039062 91.328125 58.570312 90.945312 58.753906 90.765625 C 58.933594 90.589844 59.175781 90.285156 59.175781 89.863281 C 59.175781 89.117188 58.503906 88.679688 57.703125 88.679688 C 56.933594 88.679688 56.398438 89.1875 56.398438 89.75 C 56.398438 90.054688 56.65625 90.089844 56.722656 90.089844 C 56.871094 90.089844 57.042969 89.980469 57.042969 89.765625 C 57.042969 89.636719 56.964844 89.445312 56.703125 89.445312 C 56.839844 89.140625 57.203125 88.914062 57.613281 88.914062 C 58.238281 88.914062 58.574219 89.378906 58.574219 89.863281 C 58.574219 90.285156 58.292969 90.71875 57.878906 91.101562 L 56.464844 92.394531 C 56.40625 92.453125 56.398438 92.460938 56.398438 92.644531 L 58.992188 92.644531 Z M 62.113281 88.898438 C 62.042969 89.199219 62.027344 89.261719 61.4375 89.261719 C 61.285156 89.261719 61.191406 89.261719 61.191406 89.414062 C 61.191406 89.527344 61.292969 89.527344 61.429688 89.527344 L 64.378906 89.527344 C 65.6875 89.527344 66.667969 88.597656 66.667969 87.824219 C 66.667969 87.246094 66.164062 86.777344 65.371094 86.6875 C 66.292969 86.511719 67.085938 85.910156 67.085938 85.210938 C 67.085938 84.613281 66.507812 84.097656 65.507812 84.097656 L 62.730469 84.097656 C 62.589844 84.097656 62.488281 84.097656 62.488281 84.25 C 62.488281 84.359375 62.582031 84.359375 62.71875 84.359375 C 62.980469 84.359375 63.210938 84.359375 63.210938 84.488281 C 63.210938 84.519531 63.203125 84.527344 63.175781 84.628906 Z M 63.351562 86.59375 L 63.835938 84.652344 C 63.910156 84.382812 63.917969 84.359375 64.242188 84.359375 L 65.386719 84.359375 C 66.164062 84.359375 66.339844 84.871094 66.339844 85.195312 C 66.339844 85.871094 65.617188 86.59375 64.597656 86.59375 Z M 62.804688 89.261719 C 62.730469 89.246094 62.710938 89.246094 62.710938 89.191406 C 62.710938 89.128906 62.722656 89.066406 62.738281 89.015625 L 63.296875 86.816406 L 64.910156 86.816406 C 65.648438 86.816406 65.898438 87.316406 65.898438 87.761719 C 65.898438 88.539062 65.132812 89.261719 64.179688 89.261719 Z M 70.902344 87.238281 C 70.949219 87.046875 70.964844 87.011719 71.285156 87.011719 C 71.378906 87.011719 71.464844 87.011719 71.464844 86.863281 C 71.464844 86.820312 71.425781 86.773438 71.375 86.773438 C 71.265625 86.773438 71.140625 86.792969 71.035156 86.792969 C 70.921875 86.792969 70.808594 86.796875 70.6875 86.796875 C 70.53125 86.796875 70.347656 86.796875 70.195312 86.792969 C 70.050781 86.785156 69.882812 86.773438 69.742188 86.773438 C 69.699219 86.773438 69.664062 86.773438 69.632812 86.8125 C 69.621094 86.835938 69.597656 86.910156 69.597656 86.929688 C 69.617188 87.011719 69.664062 87.011719 69.816406 87.011719 C 69.960938 87.011719 70.007812 87.011719 70.164062 87.023438 C 70.296875 87.039062 70.367188 87.042969 70.367188 87.121094 C 70.367188 87.148438 70.355469 87.191406 70.34375 87.234375 L 69.664062 89.953125 C 69.539062 90.445312 69.128906 90.773438 68.753906 90.773438 C 68.667969 90.773438 68.296875 90.761719 68.136719 90.5 C 68.476562 90.46875 68.535156 90.195312 68.535156 90.101562 C 68.535156 89.960938 68.441406 89.835938 68.257812 89.835938 C 68.023438 89.835938 67.84375 90.023438 67.84375 90.308594 C 67.84375 90.691406 68.207031 90.96875 68.761719 90.96875 C 69.40625 90.96875 70.070312 90.566406 70.207031 90.011719 L 70.902344 87.238281 "/>
<path style="fill:none;stroke-width:20;stroke-linecap:round;stroke-linejoin:round;stroke:rgb(100%,25%,25%);stroke-opacity:1;stroke-miterlimit:10;" d="M 452.851562 455.321875 L 263.085938 313.05625 " transform="matrix(0.1,0,0,-0.1,0,96.79)"/>
<path style=" stroke:none;fill-rule:nonzero;fill:rgb(100%,25%,25%);fill-opacity:1;" d="M 5.953125 59.957031 C 6.03125 59.644531 6.046875 59.574219 6.605469 59.574219 C 6.789062 59.574219 6.882812 59.574219 6.882812 59.421875 C 6.882812 59.414062 6.875 59.3125 6.746094 59.3125 C 6.597656 59.3125 6.40625 59.328125 6.253906 59.335938 L 5.753906 59.335938 C 4.992188 59.335938 4.785156 59.3125 4.730469 59.3125 C 4.695312 59.3125 4.570312 59.3125 4.570312 59.464844 C 4.570312 59.574219 4.671875 59.574219 4.800781 59.574219 C 5.0625 59.574219 5.292969 59.574219 5.292969 59.699219 C 5.292969 59.734375 5.285156 59.742188 5.261719 59.84375 L 4.785156 61.785156 L 2.226562 61.785156 L 2.6875 59.933594 C 2.757812 59.644531 2.773438 59.574219 3.355469 59.574219 C 3.511719 59.574219 3.609375 59.574219 3.609375 59.421875 C 3.609375 59.414062 3.601562 59.3125 3.472656 59.3125 C 3.320312 59.3125 3.132812 59.328125 2.980469 59.335938 L 2.480469 59.335938 C 1.71875 59.335938 1.511719 59.3125 1.453125 59.3125 C 1.421875 59.3125 1.296875 59.3125 1.296875 59.464844 C 1.296875 59.574219 1.398438 59.574219 1.527344 59.574219 C 1.789062 59.574219 2.019531 59.574219 2.019531 59.699219 C 2.019531 59.734375 2.011719 59.742188 1.988281 59.84375 L 0.921875 64.113281 C 0.851562 64.414062 0.835938 64.476562 0.246094 64.476562 C 0.09375 64.476562 0 64.476562 0 64.628906 C 0 64.660156 0.0234375 64.738281 0.128906 64.738281 C 0.277344 64.738281 0.46875 64.722656 0.621094 64.714844 L 1.128906 64.714844 C 1.890625 64.714844 2.097656 64.738281 2.15625 64.738281 C 2.203125 64.738281 2.3125 64.738281 2.3125 64.589844 C 2.3125 64.476562 2.210938 64.476562 2.074219 64.476562 C 2.050781 64.476562 1.90625 64.476562 1.773438 64.460938 C 1.605469 64.445312 1.589844 64.421875 1.589844 64.351562 C 1.589844 64.308594 1.605469 64.261719 1.613281 64.222656 L 2.15625 62.046875 L 4.710938 62.046875 C 4.484375 62.984375 4.171875 64.222656 4.164062 64.222656 C 4.09375 64.46875 3.949219 64.46875 3.472656 64.476562 C 3.378906 64.476562 3.273438 64.476562 3.273438 64.628906 C 3.273438 64.660156 3.296875 64.738281 3.402344 64.738281 C 3.554688 64.738281 3.742188 64.722656 3.894531 64.714844 L 4.402344 64.714844 C 5.164062 64.714844 5.371094 64.738281 5.429688 64.738281 C 5.476562 64.738281 5.585938 64.738281 5.585938 64.589844 C 5.585938 64.476562 5.484375 64.476562 5.347656 64.476562 C 5.324219 64.476562 5.179688 64.476562 5.046875 64.460938 C 4.878906 64.445312 4.863281 64.421875 4.863281 64.351562 C 4.863281 64.308594 4.878906 64.261719 4.886719 64.222656 Z M 10.0625 64.859375 C 10.707031 64.179688 10.84375 63.453125 10.84375 63.441406 C 10.84375 63.355469 10.753906 63.355469 10.734375 63.355469 C 10.644531 63.355469 10.640625 63.386719 10.609375 63.5 C 10.472656 63.988281 10.199219 64.382812 10.042969 64.566406 C 10.03125 64.429688 10.03125 64.300781 10.019531 64.160156 C 9.941406 63.417969 9.375 63.070312 8.796875 63.070312 C 7.886719 63.070312 7.015625 63.871094 7.015625 64.699219 C 7.015625 65.3125 7.480469 65.757812 8.179688 65.757812 C 8.496094 65.757812 9.023438 65.675781 9.628906 65.246094 C 9.714844 65.503906 9.925781 65.757812 10.289062 65.757812 C 10.640625 65.757812 10.867188 65.480469 10.867188 65.339844 C 10.867188 65.257812 10.785156 65.257812 10.757812 65.257812 C 10.691406 65.257812 10.667969 65.265625 10.640625 65.339844 C 10.585938 65.488281 10.414062 65.5625 10.308594 65.5625 C 10.214844 65.5625 10.105469 65.5625 10.0625 64.859375 Z M 9.578125 65.03125 C 8.996094 65.488281 8.464844 65.5625 8.191406 65.5625 C 7.800781 65.5625 7.535156 65.324219 7.535156 64.894531 C 7.535156 64.6875 7.628906 64.136719 7.878906 63.785156 C 8.148438 63.398438 8.53125 63.269531 8.785156 63.269531 C 9.203125 63.269531 9.417969 63.582031 9.503906 64.046875 C 9.550781 64.304688 9.542969 64.679688 9.578125 65.03125 Z M 18.167969 59.359375 C 18.175781 59.328125 18.191406 59.28125 18.191406 59.238281 C 18.191406 59.183594 18.144531 59.144531 18.089844 59.144531 C 18.035156 59.144531 18.011719 59.167969 17.945312 59.238281 L 17.390625 59.851562 C 17.316406 59.75 16.898438 59.144531 15.96875 59.144531 C 14.125 59.144531 12.265625 60.855469 12.265625 62.683594 C 12.265625 64.066406 13.3125 64.90625 14.578125 64.90625 C 15.617188 64.90625 16.5 64.269531 16.929688 63.652344 C 17.191406 63.261719 17.292969 62.878906 17.292969 62.832031 C 17.292969 62.761719 17.246094 62.730469 17.175781 62.730469 C 17.082031 62.730469 17.066406 62.769531 17.039062 62.855469 C 16.707031 63.953125 15.632812 64.644531 14.679688 64.644531 C 13.871094 64.644531 13.019531 64.167969 13.019531 62.953125 C 13.019531 62.699219 13.105469 61.371094 13.988281 60.378906 C 14.585938 59.710938 15.394531 59.40625 16.023438 59.40625 C 17.023438 59.40625 17.4375 60.210938 17.4375 60.964844 C 17.4375 61.074219 17.40625 61.226562 17.40625 61.324219 C 17.40625 61.425781 17.507812 61.425781 17.542969 61.425781 C 17.644531 61.425781 17.660156 61.394531 17.691406 61.25 Z M 21.199219 63.355469 C 20.988281 63.417969 20.941406 63.589844 20.941406 63.679688 C 20.941406 63.871094 21.097656 63.910156 21.179688 63.910156 C 21.355469 63.910156 21.527344 63.769531 21.527344 63.535156 C 21.527344 63.214844 21.175781 63.070312 20.871094 63.070312 C 20.476562 63.070312 20.238281 63.375 20.171875 63.488281 C 20.097656 63.339844 19.871094 63.070312 19.421875 63.070312 C 18.738281 63.070312 18.332031 63.78125 18.332031 63.988281 C 18.332031 64.019531 18.355469 64.074219 18.4375 64.074219 C 18.523438 64.074219 18.539062 64.035156 18.558594 63.980469 C 18.707031 63.5 19.113281 63.269531 19.402344 63.269531 C 19.695312 63.269531 19.785156 63.457031 19.785156 63.65625 C 19.785156 63.726562 19.785156 63.78125 19.738281 63.964844 C 19.601562 64.519531 19.46875 65.0625 19.441406 65.132812 C 19.351562 65.359375 19.136719 65.5625 18.886719 65.5625 C 18.851562 65.5625 18.683594 65.5625 18.546875 65.472656 C 18.777344 65.394531 18.800781 65.199219 18.800781 65.152344 C 18.800781 64.996094 18.683594 64.917969 18.566406 64.917969 C 18.398438 64.917969 18.21875 65.050781 18.21875 65.292969 C 18.21875 65.632812 18.59375 65.757812 18.875 65.757812 C 19.214844 65.757812 19.457031 65.527344 19.570312 65.339844 C 19.691406 65.589844 19.976562 65.757812 20.316406 65.757812 C 21.019531 65.757812 21.414062 65.039062 21.414062 64.839844 C 21.414062 64.828125 21.40625 64.757812 21.300781 64.757812 C 21.214844 64.757812 21.203125 64.800781 21.1875 64.851562 C 21.011719 65.371094 20.589844 65.5625 20.339844 65.5625 C 20.113281 65.5625 19.953125 65.429688 19.953125 65.179688 C 19.953125 65.066406 19.980469 64.9375 20.035156 64.726562 L 20.226562 63.953125 C 20.285156 63.722656 20.316406 63.613281 20.441406 63.46875 C 20.527344 63.378906 20.667969 63.269531 20.859375 63.269531 C 20.886719 63.269531 21.066406 63.269531 21.199219 63.355469 "/>
<path style="fill:none;stroke-width:5;stroke-linecap:round;stroke-linejoin:round;stroke:rgb(0%,0%,0%);stroke-opacity:1;stroke-miterlimit:10;" d="M 249.6875 366.49375 C 211.40625 381.064063 182.03125 399.93125 166.640625 421.9625 C 145.351562 452.43125 154.453125 483.446875 186.601562 509.696875 " transform="matrix(0.1,0,0,-0.1,0,96.79)"/>
<path style=" stroke:none;fill-rule:nonzero;fill:rgb(0%,0%,0%);fill-opacity:1;" d="M 29.703125 61.609375 C 28.148438 60.753906 26.714844 59.855469 25.429688 58.929688 L 24.5 61.367188 C 26.125 61.550781 27.867188 61.632812 29.703125 61.609375 "/>
<path style="fill:none;stroke-width:5;stroke-linecap:round;stroke-linejoin:round;stroke:rgb(0%,0%,0%);stroke-opacity:1;stroke-miterlimit:10;" d="M 297.03125 351.80625 C 281.484375 360.360938 267.148438 369.345313 254.296875 378.603125 L 245 354.228125 C 261.25 352.392188 278.671875 351.571875 297.03125 351.80625 Z M 297.03125 351.80625 " transform="matrix(0.1,0,0,-0.1,0,96.79)"/>
<path style="fill:none;stroke-width:20;stroke-linecap:round;stroke-linejoin:round;stroke:rgb(0%,50%,100%);stroke-opacity:1;stroke-miterlimit:10;" d="M 452.851562 455.321875 L 287.851562 307.978125 " transform="matrix(0.1,0,0,-0.1,0,96.79)"/>
<path style=" stroke:none;fill-rule:nonzero;fill:rgb(0%,50%,100%);fill-opacity:1;" d="M 28.332031 70.984375 C 28.410156 70.675781 28.425781 70.605469 28.984375 70.605469 C 29.167969 70.605469 29.261719 70.605469 29.261719 70.453125 C 29.261719 70.445312 29.253906 70.34375 29.125 70.34375 C 28.976562 70.34375 28.785156 70.359375 28.632812 70.367188 L 28.132812 70.367188 C 27.371094 70.367188 27.164062 70.34375 27.109375 70.34375 C 27.074219 70.34375 26.949219 70.34375 26.949219 70.492188 C 26.949219 70.605469 27.050781 70.605469 27.179688 70.605469 C 27.441406 70.605469 27.671875 70.605469 27.671875 70.730469 C 27.671875 70.765625 27.664062 70.773438 27.640625 70.875 L 27.164062 72.8125 L 24.605469 72.8125 L 25.066406 70.960938 C 25.136719 70.675781 25.152344 70.605469 25.734375 70.605469 C 25.890625 70.605469 25.988281 70.605469 25.988281 70.453125 C 25.988281 70.445312 25.980469 70.34375 25.851562 70.34375 C 25.699219 70.34375 25.511719 70.359375 25.359375 70.367188 L 24.859375 70.367188 C 24.097656 70.367188 23.890625 70.34375 23.832031 70.34375 C 23.800781 70.34375 23.675781 70.34375 23.675781 70.492188 C 23.675781 70.605469 23.777344 70.605469 23.90625 70.605469 C 24.167969 70.605469 24.398438 70.605469 24.398438 70.730469 C 24.398438 70.765625 24.390625 70.773438 24.367188 70.875 L 23.300781 75.140625 C 23.230469 75.445312 23.214844 75.507812 22.625 75.507812 C 22.472656 75.507812 22.378906 75.507812 22.378906 75.660156 C 22.378906 75.691406 22.402344 75.769531 22.507812 75.769531 C 22.65625 75.769531 22.847656 75.753906 23 75.746094 L 23.507812 75.746094 C 24.269531 75.746094 24.476562 75.769531 24.535156 75.769531 C 24.582031 75.769531 24.691406 75.769531 24.691406 75.617188 C 24.691406 75.507812 24.589844 75.507812 24.453125 75.507812 C 24.429688 75.507812 24.285156 75.507812 24.152344 75.492188 C 23.984375 75.476562 23.96875 75.453125 23.96875 75.382812 C 23.96875 75.339844 23.984375 75.292969 23.992188 75.253906 L 24.535156 73.078125 L 27.089844 73.078125 C 26.863281 74.015625 26.550781 75.253906 26.542969 75.253906 C 26.472656 75.5 26.328125 75.5 25.851562 75.507812 C 25.757812 75.507812 25.652344 75.507812 25.652344 75.660156 C 25.652344 75.691406 25.675781 75.769531 25.78125 75.769531 C 25.933594 75.769531 26.121094 75.753906 26.273438 75.746094 L 26.78125 75.746094 C 27.542969 75.746094 27.75 75.769531 27.808594 75.769531 C 27.855469 75.769531 27.964844 75.769531 27.964844 75.617188 C 27.964844 75.507812 27.863281 75.507812 27.726562 75.507812 C 27.703125 75.507812 27.558594 75.507812 27.425781 75.492188 C 27.257812 75.476562 27.242188 75.453125 27.242188 75.382812 C 27.242188 75.339844 27.257812 75.292969 27.265625 75.253906 Z M 32.9375 73.820312 C 32.9375 73.378906 32.523438 73.007812 31.863281 73.007812 C 31.683594 73.007812 31.492188 73.0625 31.332031 73.144531 C 30.785156 73.425781 30.390625 74.015625 30.257812 74.546875 L 29.324219 78.289062 C 29.304688 78.347656 29.382812 78.367188 29.441406 78.367188 C 29.496094 78.367188 29.53125 78.359375 29.542969 78.308594 C 29.550781 78.300781 29.871094 77.011719 29.9375 76.746094 C 30.117188 77.109375 30.492188 77.269531 30.878906 77.269531 C 31.703125 77.269531 32.726562 76.703125 32.726562 75.78125 C 32.726562 75.457031 32.609375 75.113281 32.242188 74.855469 C 32.746094 74.539062 32.9375 74.195312 32.9375 73.820312 Z M 31.640625 74.847656 C 31.582031 74.863281 31.433594 74.875 31.375 74.875 C 31.3125 74.875 31.160156 74.875 31.117188 74.855469 C 31.210938 74.84375 31.308594 74.839844 31.402344 74.839844 C 31.476562 74.839844 31.554688 74.84375 31.640625 74.847656 Z M 32.511719 73.757812 C 32.511719 74.183594 32.257812 74.558594 31.976562 74.71875 C 31.804688 74.660156 31.625 74.640625 31.445312 74.640625 C 31.296875 74.640625 30.84375 74.628906 30.84375 74.867188 C 30.84375 75.089844 31.226562 75.070312 31.375 75.070312 C 31.515625 75.070312 31.832031 75.046875 31.957031 74.976562 C 32.125 75.09375 32.261719 75.265625 32.261719 75.625 C 32.261719 76.433594 31.714844 77.074219 30.875 77.074219 C 30.4375 77.074219 30.070312 76.792969 30.070312 76.332031 C 30.070312 76.28125 30.070312 76.230469 30.082031 76.183594 L 30.484375 74.570312 C 30.628906 73.992188 31.203125 73.207031 31.867188 73.207031 C 32.226562 73.207031 32.511719 73.367188 32.511719 73.757812 Z M 40.308594 70.390625 C 40.316406 70.359375 40.332031 70.3125 40.332031 70.269531 C 40.332031 70.214844 40.285156 70.175781 40.230469 70.175781 C 40.171875 70.175781 40.148438 70.199219 40.085938 70.269531 L 39.527344 70.882812 C 39.457031 70.78125 39.035156 70.175781 38.105469 70.175781 C 36.261719 70.175781 34.402344 71.882812 34.402344 73.710938 C 34.402344 75.09375 35.453125 75.9375 36.714844 75.9375 C 37.757812 75.9375 38.636719 75.300781 39.066406 74.679688 C 39.332031 74.292969 39.433594 73.910156 39.433594 73.863281 C 39.433594 73.792969 39.386719 73.757812 39.316406 73.757812 C 39.21875 73.757812 39.203125 73.800781 39.179688 73.886719 C 38.847656 74.984375 37.773438 75.675781 36.820312 75.675781 C 36.007812 75.675781 35.160156 75.199219 35.160156 73.984375 C 35.160156 73.726562 35.246094 72.402344 36.128906 71.40625 C 36.722656 70.742188 37.535156 70.4375 38.160156 70.4375 C 39.164062 70.4375 39.578125 71.242188 39.578125 71.996094 C 39.578125 72.105469 39.542969 72.257812 39.542969 72.351562 C 39.542969 72.457031 39.648438 72.457031 39.679688 72.457031 C 39.785156 72.457031 39.800781 72.425781 39.832031 72.28125 Z M 43.339844 74.386719 C 43.128906 74.449219 43.082031 74.621094 43.082031 74.710938 C 43.082031 74.902344 43.238281 74.941406 43.320312 74.941406 C 43.492188 74.941406 43.664062 74.800781 43.664062 74.566406 C 43.664062 74.246094 43.3125 74.101562 43.011719 74.101562 C 42.617188 74.101562 42.378906 74.40625 42.3125 74.519531 C 42.234375 74.371094 42.007812 74.101562 41.5625 74.101562 C 40.875 74.101562 40.472656 74.8125 40.472656 75.019531 C 40.472656 75.050781 40.496094 75.105469 40.578125 75.105469 C 40.660156 75.105469 40.679688 75.066406 40.699219 75.011719 C 40.847656 74.53125 41.25 74.300781 41.542969 74.300781 C 41.835938 74.300781 41.925781 74.488281 41.925781 74.6875 C 41.925781 74.757812 41.925781 74.8125 41.878906 74.996094 C 41.738281 75.550781 41.609375 76.09375 41.578125 76.164062 C 41.488281 76.390625 41.277344 76.59375 41.027344 76.59375 C 40.988281 76.59375 40.824219 76.59375 40.683594 76.503906 C 40.917969 76.425781 40.941406 76.230469 40.941406 76.183594 C 40.941406 76.027344 40.824219 75.949219 40.703125 75.949219 C 40.535156 75.949219 40.355469 76.082031 40.355469 76.324219 C 40.355469 76.664062 40.734375 76.789062 41.011719 76.789062 C 41.351562 76.789062 41.597656 76.558594 41.710938 76.371094 C 41.832031 76.621094 42.117188 76.789062 42.457031 76.789062 C 43.160156 76.789062 43.550781 76.070312 43.550781 75.871094 C 43.550781 75.859375 43.546875 75.789062 43.4375 75.789062 C 43.355469 75.789062 43.34375 75.832031 43.324219 75.882812 C 43.152344 76.402344 42.730469 76.59375 42.480469 76.59375 C 42.253906 76.59375 42.089844 76.460938 42.089844 76.210938 C 42.089844 76.097656 42.121094 75.96875 42.175781 75.757812 L 42.367188 74.984375 C 42.425781 74.753906 42.457031 74.644531 42.582031 74.5 C 42.664062 74.410156 42.808594 74.300781 42.996094 74.300781 C 43.027344 74.300781 43.207031 74.300781 43.339844 74.386719 "/>
<path style="fill:none;stroke-width:5;stroke-linecap:round;stroke-linejoin:round;stroke:rgb(0%,0%,0%);stroke-opacity:1;stroke-miterlimit:10;" d="M 392.65625 336.3375 C 446.484375 331.767188 504.023438 333.251563 559.179688 341.845313 C 631.601562 353.173438 686.953125 374.775 719.0625 400.985938 " transform="matrix(0.1,0,0,-0.1,0,96.79)"/>
<path style=" stroke:none;fill-rule:nonzero;fill:rgb(0%,0%,0%);fill-opacity:1;" d="M 34.34375 62.554688 C 35.878906 63.25 37.488281 63.902344 39.152344 64.5 L 39.378906 61.828125 C 37.671875 62.140625 35.988281 62.382812 34.34375 62.554688 "/>
<path style="fill:none;stroke-width:5;stroke-linecap:round;stroke-linejoin:round;stroke:rgb(0%,0%,0%);stroke-opacity:1;stroke-miterlimit:10;" d="M 343.4375 342.353125 C 358.789062 335.4 374.882812 328.876563 391.523438 322.9 L 393.789062 349.61875 C 376.71875 346.49375 359.882812 344.071875 343.4375 342.353125 Z M 343.4375 342.353125 " transform="matrix(0.1,0,0,-0.1,0,96.79)"/>
</g>
</svg>
