<?xml version="1.0" encoding="UTF-8"?>
<svg xmlns="http://www.w3.org/2000/svg" xmlns:xlink="http://www.w3.org/1999/xlink" width="95.31pt" height="96.79pt" viewBox="0 0 95.31 96.79" version="1.1">
<defs>
<clipPath id="clip1">
  <path d="M 91 58 L 95.308594 58 L 95.308594 64 L 91 64 Z M 91 58 "/>
</clipPath>
<clipPath id="clip2">
  <path d="M 44 51 L 45 51 L 45 96.789062 L 44 96.789062 Z M 44 51 "/>
</clipPath>
</defs>
<g id="surface1">
<path style="fill:none;stroke-width:5;stroke-linecap:round;stroke-linejoin:round;stroke:rgb(0%,0%,0%);stroke-opacity:1;stroke-miterlimit:10;" d="M 446.914062 455.321875 L 225.078125 274.189063 " transform="matrix(0.1,0,0,-0.1,0,96.79)"/>
<path style=" stroke:none;fill-rule:nonzero;fill:rgb(0%,0%,0%);fill-opacity:1;" d="M 20.265625 70.886719 C 19.914062 70.976562 19.898438 71.285156 19.898438 71.316406 C 19.898438 71.492188 20.035156 71.609375 20.210938 71.609375 C 20.382812 71.609375 20.65625 71.476562 20.65625 71.132812 C 20.65625 70.679688 20.15625 70.554688 19.859375 70.554688 C 19.488281 70.554688 19.183594 70.816406 19 71.125 C 18.828125 70.703125 18.414062 70.554688 18.089844 70.554688 C 17.222656 70.554688 16.738281 71.546875 16.738281 71.769531 C 16.738281 71.839844 16.792969 71.871094 16.855469 71.871094 C 16.953125 71.871094 16.96875 71.832031 16.992188 71.738281 C 17.175781 71.15625 17.652344 70.773438 18.0625 70.773438 C 18.375 70.773438 18.523438 71 18.523438 71.285156 C 18.523438 71.445312 18.429688 71.808594 18.367188 72.0625 C 18.308594 72.292969 18.136719 73 18.097656 73.152344 C 17.984375 73.582031 17.699219 73.914062 17.339844 73.914062 C 17.308594 73.914062 17.101562 73.914062 16.933594 73.804688 C 17.300781 73.714844 17.300781 73.382812 17.300781 73.375 C 17.300781 73.191406 17.15625 73.078125 16.984375 73.078125 C 16.769531 73.078125 16.539062 73.261719 16.539062 73.566406 C 16.539062 73.929688 16.925781 74.136719 17.332031 74.136719 C 17.753906 74.136719 18.046875 73.820312 18.191406 73.566406 C 18.367188 73.953125 18.730469 74.136719 19.113281 74.136719 C 19.980469 74.136719 20.457031 73.144531 20.457031 72.921875 C 20.457031 72.84375 20.390625 72.820312 20.335938 72.820312 C 20.242188 72.820312 20.226562 72.875 20.203125 72.953125 C 20.042969 73.484375 19.589844 73.914062 19.128906 73.914062 C 18.867188 73.914062 18.675781 73.742188 18.675781 73.40625 C 18.675781 73.246094 18.722656 73.0625 18.835938 72.617188 C 18.890625 72.382812 19.066406 71.679688 19.105469 71.53125 C 19.21875 71.117188 19.496094 70.773438 19.851562 70.773438 C 19.890625 70.773438 20.097656 70.773438 20.265625 70.886719 "/>
<path style="fill:none;stroke-width:5;stroke-linecap:round;stroke-linejoin:round;stroke:rgb(50%,50%,50%);stroke-opacity:1;stroke-miterlimit:10;" d="M 668.75 636.49375 L 446.914062 455.321875 " transform="matrix(0.1,0,0,-0.1,0,96.79)"/>
<path style="fill:none;stroke-width:5;stroke-linecap:round;stroke-linejoin:round;stroke:rgb(0%,0%,0%);stroke-opacity:1;stroke-miterlimit:10;" d="M 446.914062 455.321875 L 890.585938 364.775 " transform="matrix(0.1,0,0,-0.1,0,96.79)"/>
<g clip-path="url(#clip1)" clip-rule="nonzero">
<path style=" stroke:none;fill-rule:nonzero;fill:rgb(0%,0%,0%);fill-opacity:1;" d="M 95.28125 59.261719 C 95.3125 59.148438 95.3125 59.132812 95.3125 59.078125 C 95.3125 58.878906 95.152344 58.832031 95.058594 58.832031 C 95.019531 58.832031 94.835938 58.839844 94.734375 59.042969 C 94.714844 59.085938 94.644531 59.371094 94.605469 59.539062 L 94.128906 61.445312 C 94.121094 61.46875 93.777344 62.113281 93.199219 62.113281 C 92.808594 62.113281 92.671875 61.824219 92.671875 61.46875 C 92.671875 61.007812 92.945312 60.300781 93.125 59.839844 C 93.207031 59.640625 93.230469 59.570312 93.230469 59.425781 C 93.230469 58.988281 92.882812 58.75 92.515625 58.75 C 91.726562 58.75 91.402344 59.871094 91.402344 59.964844 C 91.402344 60.039062 91.457031 60.070312 91.523438 60.070312 C 91.625 60.070312 91.632812 60.023438 91.65625 59.941406 C 91.863281 59.25 92.203125 58.972656 92.492188 58.972656 C 92.609375 58.972656 92.679688 59.050781 92.679688 59.234375 C 92.679688 59.402344 92.617188 59.585938 92.5625 59.730469 C 92.238281 60.570312 92.101562 60.976562 92.101562 61.347656 C 92.101562 62.128906 92.691406 62.335938 93.160156 62.335938 C 93.53125 62.335938 93.804688 62.167969 93.992188 61.984375 C 93.882812 62.429688 93.804688 62.738281 93.5 63.121094 C 93.238281 63.449219 92.921875 63.652344 92.5625 63.652344 C 92.429688 63.652344 92.125 63.628906 91.96875 63.390625 C 92.386719 63.359375 92.421875 63.003906 92.421875 62.957031 C 92.421875 62.765625 92.277344 62.660156 92.109375 62.660156 C 91.933594 62.660156 91.65625 62.796875 91.65625 63.183594 C 91.65625 63.558594 92 63.878906 92.5625 63.878906 C 93.375 63.878906 94.289062 63.222656 94.523438 62.261719 L 95.28125 59.261719 "/>
</g>
<path style="fill:none;stroke-width:5;stroke-linecap:round;stroke-linejoin:round;stroke:rgb(50%,50%,50%);stroke-opacity:1;stroke-miterlimit:10;" d="M 3.203125 545.907813 L 446.914062 455.321875 " transform="matrix(0.1,0,0,-0.1,0,96.79)"/>
<path style="fill:none;stroke-width:5;stroke-linecap:round;stroke-linejoin:round;stroke:rgb(0%,0%,0%);stroke-opacity:1;stroke-miterlimit:10;" d="M 446.914062 455.321875 L 446.914062 908.173438 " transform="matrix(0.1,0,0,-0.1,0,96.79)"/>
<path style=" stroke:none;fill-rule:nonzero;fill:rgb(0%,0%,0%);fill-opacity:1;" d="M 43.71875 2.808594 C 44.007812 2.515625 44.09375 2.425781 44.792969 1.847656 C 44.882812 1.777344 45.4375 1.316406 45.652344 1.109375 C 46.152344 0.617188 46.464844 0.179688 46.464844 0.0898438 C 46.464844 0.0195312 46.398438 -0.00390625 46.34375 -0.00390625 C 46.265625 -0.00390625 46.257812 0.0117188 46.175781 0.132812 C 45.929688 0.496094 45.757812 0.558594 45.613281 0.558594 C 45.460938 0.558594 45.367188 0.496094 45.207031 0.339844 C 45 0.140625 44.84375 -0.00390625 44.589844 -0.00390625 C 43.953125 -0.00390625 43.554688 0.710938 43.554688 0.925781 C 43.554688 0.933594 43.554688 1.019531 43.679688 1.019531 C 43.761719 1.019531 43.777344 0.988281 43.808594 0.902344 C 43.914062 0.671875 44.253906 0.59375 44.492188 0.59375 C 44.675781 0.59375 44.867188 0.640625 45.054688 0.695312 C 45.390625 0.785156 45.460938 0.785156 45.644531 0.785156 C 45.476562 0.957031 45.253906 1.179688 44.644531 1.679688 C 44.308594 1.957031 43.976562 2.230469 43.761719 2.433594 C 43.171875 3.015625 42.917969 3.40625 42.917969 3.484375 C 42.917969 3.558594 42.972656 3.582031 43.039062 3.582031 C 43.117188 3.582031 43.132812 3.558594 43.171875 3.5 C 43.332031 3.261719 43.578125 3.015625 43.878906 3.015625 C 44.0625 3.015625 44.144531 3.089844 44.292969 3.238281 C 44.546875 3.484375 44.691406 3.582031 44.921875 3.582031 C 45.746094 3.582031 46.25 2.59375 46.25 2.347656 C 46.25 2.277344 46.191406 2.246094 46.128906 2.246094 C 46.042969 2.246094 46.027344 2.292969 45.992188 2.371094 C 45.84375 2.769531 45.40625 2.984375 45.007812 2.984375 C 44.859375 2.984375 44.683594 2.945312 44.445312 2.878906 C 44.109375 2.792969 44.03125 2.792969 43.914062 2.792969 C 43.832031 2.792969 43.785156 2.792969 43.71875 2.808594 "/>
<g clip-path="url(#clip2)" clip-rule="nonzero">
<path style="fill:none;stroke-width:5;stroke-linecap:round;stroke-linejoin:round;stroke:rgb(50%,50%,50%);stroke-opacity:1;stroke-miterlimit:10;" d="M 446.914062 2.509375 L 446.914062 455.321875 " transform="matrix(0.1,0,0,-0.1,0,96.79)"/>
</g>
<path style="fill:none;stroke-width:15;stroke-linecap:round;stroke-linejoin:round;stroke:rgb(100%,25%,25%);stroke-opacity:1;stroke-dasharray:15.4159,23.1238;stroke-miterlimit:10;" d="M 446.914062 455.321875 L 446.914062 817.626563 " transform="matrix(0.1,0,0,-0.1,0,96.79)"/>
<path style=" stroke:none;fill-rule:nonzero;fill:rgb(100%,25%,25%);fill-opacity:1;" d="M 50.417969 10.046875 C 50.417969 9.867188 50.394531 9.867188 50.214844 9.867188 C 49.820312 10.246094 49.214844 10.246094 49 10.246094 L 49 10.480469 C 49.15625 10.480469 49.546875 10.480469 49.90625 10.3125 L 49.90625 13.324219 C 49.90625 13.519531 49.90625 13.597656 49.289062 13.597656 L 49.035156 13.597656 L 49.035156 13.832031 C 49.363281 13.808594 49.828125 13.808594 50.160156 13.808594 C 50.496094 13.808594 50.960938 13.808594 51.285156 13.832031 L 51.285156 13.597656 L 51.03125 13.597656 C 50.417969 13.597656 50.417969 13.519531 50.417969 13.324219 Z M 48.277344 15.269531 L 51.996094 15.269531 L 51.996094 14.789062 L 48.277344 14.789062 Z M 51.484375 19.078125 L 51.265625 19.078125 C 51.25 19.160156 51.191406 19.554688 51.101562 19.617188 C 51.058594 19.65625 50.578125 19.65625 50.496094 19.65625 L 49.382812 19.65625 L 50.144531 19.035156 C 50.347656 18.875 50.875 18.492188 51.058594 18.3125 C 51.238281 18.132812 51.484375 17.828125 51.484375 17.40625 C 51.484375 16.664062 50.808594 16.226562 50.011719 16.226562 C 49.242188 16.226562 48.707031 16.734375 48.707031 17.292969 C 48.707031 17.597656 48.964844 17.632812 49.03125 17.632812 C 49.175781 17.632812 49.351562 17.527344 49.351562 17.3125 C 49.351562 17.179688 49.273438 16.992188 49.011719 16.992188 C 49.148438 16.6875 49.511719 16.460938 49.921875 16.460938 C 50.546875 16.460938 50.882812 16.925781 50.882812 17.40625 C 50.882812 17.828125 50.601562 18.265625 50.183594 18.648438 L 48.773438 19.941406 C 48.710938 20 48.707031 20.007812 48.707031 20.191406 L 51.300781 20.191406 Z M 54.421875 16.441406 C 54.347656 16.746094 54.335938 16.808594 53.746094 16.808594 C 53.59375 16.808594 53.5 16.808594 53.5 16.960938 C 53.5 17.070312 53.601562 17.070312 53.738281 17.070312 L 56.683594 17.070312 C 57.996094 17.070312 58.972656 16.140625 58.972656 15.371094 C 58.972656 14.789062 58.472656 14.320312 57.679688 14.234375 C 58.601562 14.058594 59.394531 13.457031 59.394531 12.753906 C 59.394531 12.160156 58.816406 11.644531 57.8125 11.644531 L 55.039062 11.644531 C 54.898438 11.644531 54.792969 11.644531 54.792969 11.792969 C 54.792969 11.90625 54.890625 11.90625 55.023438 11.90625 C 55.285156 11.90625 55.515625 11.90625 55.515625 12.03125 C 55.515625 12.066406 55.507812 12.074219 55.484375 12.175781 Z M 55.660156 14.136719 L 56.144531 12.199219 C 56.21875 11.929688 56.222656 11.90625 56.550781 11.90625 L 57.695312 11.90625 C 58.472656 11.90625 58.648438 12.414062 58.648438 12.738281 C 58.648438 13.414062 57.925781 14.136719 56.90625 14.136719 Z M 55.113281 16.808594 C 55.039062 16.792969 55.015625 16.792969 55.015625 16.738281 C 55.015625 16.675781 55.03125 16.609375 55.046875 16.5625 L 55.605469 14.363281 L 57.21875 14.363281 C 57.957031 14.363281 58.203125 14.863281 58.203125 15.308594 C 58.203125 16.085938 57.441406 16.808594 56.488281 16.808594 Z M 63.210938 14.785156 C 63.257812 14.59375 63.269531 14.558594 63.59375 14.558594 C 63.6875 14.558594 63.769531 14.558594 63.769531 14.410156 C 63.769531 14.367188 63.734375 14.320312 63.679688 14.320312 C 63.574219 14.320312 63.449219 14.335938 63.34375 14.335938 C 63.226562 14.335938 63.117188 14.34375 62.996094 14.34375 C 62.839844 14.34375 62.65625 14.34375 62.503906 14.335938 C 62.359375 14.332031 62.191406 14.320312 62.046875 14.320312 C 62.007812 14.320312 61.96875 14.320312 61.941406 14.355469 C 61.929688 14.378906 61.90625 14.457031 61.90625 14.476562 C 61.921875 14.558594 61.96875 14.558594 62.125 14.558594 C 62.269531 14.558594 62.316406 14.558594 62.472656 14.570312 C 62.601562 14.582031 62.671875 14.585938 62.671875 14.664062 C 62.671875 14.695312 62.664062 14.738281 62.652344 14.777344 L 61.96875 17.496094 C 61.84375 17.992188 61.433594 18.320312 61.058594 18.320312 C 60.976562 18.320312 60.605469 18.308594 60.445312 18.046875 C 60.785156 18.015625 60.84375 17.742188 60.84375 17.644531 C 60.84375 17.507812 60.75 17.382812 60.566406 17.382812 C 60.332031 17.382812 60.152344 17.570312 60.152344 17.855469 C 60.152344 18.234375 60.515625 18.515625 61.070312 18.515625 C 61.714844 18.515625 62.378906 18.109375 62.511719 17.554688 L 63.210938 14.785156 "/>
<path style="fill:none;stroke-width:15;stroke-linecap:round;stroke-linejoin:round;stroke:rgb(0%,50%,100%);stroke-opacity:1;stroke-dasharray:15.4159,23.1238;stroke-miterlimit:10;" d="M 446.914062 455.321875 L 446.914062 93.05625 " transform="matrix(0.1,0,0,-0.1,0,96.79)"/>
<path style=" stroke:none;fill-rule:nonzero;fill:rgb(0%,50%,100%);fill-opacity:1;" d="M 53.132812 87.722656 C 53.261719 87.722656 53.433594 87.722656 53.433594 87.539062 C 53.433594 87.355469 53.261719 87.355469 53.132812 87.355469 L 48.578125 87.355469 C 48.453125 87.355469 48.277344 87.355469 48.277344 87.539062 C 48.277344 87.722656 48.453125 87.722656 48.578125 87.722656 Z M 57.515625 82.5 C 57.515625 82.320312 57.492188 82.320312 57.316406 82.320312 C 56.921875 82.703125 56.3125 82.703125 56.097656 82.703125 L 56.097656 82.933594 C 56.253906 82.933594 56.648438 82.933594 57.003906 82.769531 L 57.003906 85.777344 C 57.003906 85.976562 57.003906 86.050781 56.390625 86.050781 L 56.132812 86.050781 L 56.132812 86.285156 C 56.460938 86.261719 56.925781 86.261719 57.261719 86.261719 C 57.59375 86.261719 58.058594 86.261719 58.386719 86.285156 L 58.386719 86.050781 L 58.132812 86.050781 C 57.515625 86.050781 57.515625 85.976562 57.515625 85.777344 Z M 55.378906 87.726562 L 59.097656 87.726562 L 59.097656 87.246094 L 55.378906 87.246094 Z M 58.585938 91.53125 L 58.363281 91.53125 C 58.351562 91.613281 58.292969 92.007812 58.203125 92.074219 C 58.160156 92.109375 57.675781 92.109375 57.59375 92.109375 L 56.480469 92.109375 L 57.242188 91.488281 C 57.445312 91.328125 57.976562 90.945312 58.160156 90.765625 C 58.339844 90.589844 58.585938 90.285156 58.585938 89.863281 C 58.585938 89.117188 57.910156 88.679688 57.113281 88.679688 C 56.34375 88.679688 55.808594 89.1875 55.808594 89.75 C 55.808594 90.054688 56.0625 90.089844 56.128906 90.089844 C 56.277344 90.089844 56.453125 89.980469 56.453125 89.765625 C 56.453125 89.636719 56.371094 89.445312 56.109375 89.445312 C 56.246094 89.140625 56.613281 88.914062 57.023438 88.914062 C 57.648438 88.914062 57.980469 89.378906 57.980469 89.863281 C 57.980469 90.285156 57.703125 90.71875 57.285156 91.101562 L 55.871094 92.394531 C 55.8125 92.453125 55.808594 92.460938 55.808594 92.644531 L 58.398438 92.644531 Z M 61.523438 88.898438 C 61.449219 89.199219 61.433594 89.261719 60.84375 89.261719 C 60.695312 89.261719 60.597656 89.261719 60.597656 89.414062 C 60.597656 89.527344 60.703125 89.527344 60.835938 89.527344 L 63.785156 89.527344 C 65.097656 89.527344 66.074219 88.597656 66.074219 87.824219 C 66.074219 87.246094 65.574219 86.777344 64.78125 86.6875 C 65.703125 86.511719 66.496094 85.910156 66.496094 85.210938 C 66.496094 84.613281 65.914062 84.097656 64.914062 84.097656 L 62.140625 84.097656 C 61.996094 84.097656 61.894531 84.097656 61.894531 84.25 C 61.894531 84.359375 61.988281 84.359375 62.125 84.359375 C 62.386719 84.359375 62.617188 84.359375 62.617188 84.488281 C 62.617188 84.519531 62.609375 84.527344 62.585938 84.628906 Z M 62.761719 86.59375 L 63.246094 84.652344 C 63.316406 84.382812 63.324219 84.359375 63.652344 84.359375 L 64.792969 84.359375 C 65.574219 84.359375 65.746094 84.871094 65.746094 85.195312 C 65.746094 85.871094 65.023438 86.59375 64.007812 86.59375 Z M 62.210938 89.261719 C 62.140625 89.246094 62.117188 89.246094 62.117188 89.191406 C 62.117188 89.128906 62.132812 89.066406 62.148438 89.015625 L 62.703125 86.816406 L 64.320312 86.816406 C 65.058594 86.816406 65.304688 87.316406 65.304688 87.761719 C 65.304688 88.539062 64.539062 89.261719 63.585938 89.261719 Z M 70.3125 87.238281 C 70.359375 87.046875 70.371094 87.011719 70.691406 87.011719 C 70.789062 87.011719 70.871094 87.011719 70.871094 86.863281 C 70.871094 86.820312 70.835938 86.773438 70.78125 86.773438 C 70.671875 86.773438 70.546875 86.792969 70.441406 86.792969 C 70.328125 86.792969 70.214844 86.796875 70.09375 86.796875 C 69.941406 86.796875 69.757812 86.796875 69.601562 86.792969 C 69.457031 86.785156 69.289062 86.773438 69.148438 86.773438 C 69.105469 86.773438 69.070312 86.773438 69.039062 86.8125 C 69.027344 86.835938 69.003906 86.910156 69.003906 86.929688 C 69.023438 87.011719 69.070312 87.011719 69.226562 87.011719 C 69.367188 87.011719 69.414062 87.011719 69.574219 87.023438 C 69.703125 87.039062 69.773438 87.042969 69.773438 87.121094 C 69.773438 87.148438 69.761719 87.191406 69.75 87.234375 L 69.070312 89.953125 C 68.945312 90.445312 68.535156 90.773438 68.160156 90.773438 C 68.074219 90.773438 67.707031 90.761719 67.546875 90.5 C 67.886719 90.46875 67.945312 90.195312 67.945312 90.101562 C 67.945312 89.960938 67.847656 89.835938 67.664062 89.835938 C 67.429688 89.835938 67.253906 90.023438 67.253906 90.308594 C 67.253906 90.691406 67.617188 90.96875 68.171875 90.96875 C 68.816406 90.96875 69.476562 90.566406 69.613281 90.011719 L 70.3125 87.238281 "/>
<path style="fill:none;stroke-width:20;stroke-linecap:round;stroke-linejoin:round;stroke:rgb(100%,25%,25%);stroke-opacity:1;stroke-miterlimit:10;" d="M 446.914062 455.321875 L 91.953125 527.782813 " transform="matrix(0.1,0,0,-0.1,0,96.79)"/>
<path style=" stroke:none;fill-rule:nonzero;fill:rgb(100%,25%,25%);fill-opacity:1;" d="M 4.855469 52.582031 C 4.984375 52.582031 5.15625 52.582031 5.15625 52.398438 C 5.15625 52.21875 4.984375 52.21875 4.855469 52.21875 L 0.300781 52.21875 C 0.171875 52.21875 0 52.21875 0 52.398438 C 0 52.582031 0.171875 52.582031 0.300781 52.582031 Z M 12.25 49.601562 C 12.328125 49.292969 12.34375 49.222656 12.902344 49.222656 C 13.085938 49.222656 13.179688 49.222656 13.179688 49.070312 C 13.179688 49.0625 13.171875 48.960938 13.042969 48.960938 C 12.894531 48.960938 12.703125 48.976562 12.550781 48.984375 L 12.050781 48.984375 C 11.285156 48.984375 11.082031 48.960938 11.027344 48.960938 C 10.992188 48.960938 10.867188 48.960938 10.867188 49.109375 C 10.867188 49.222656 10.96875 49.222656 11.097656 49.222656 C 11.359375 49.222656 11.589844 49.222656 11.589844 49.347656 C 11.589844 49.382812 11.582031 49.390625 11.558594 49.492188 L 11.082031 51.429688 L 8.519531 51.429688 L 8.980469 49.578125 C 9.054688 49.292969 9.070312 49.222656 9.652344 49.222656 C 9.808594 49.222656 9.90625 49.222656 9.90625 49.070312 C 9.90625 49.0625 9.894531 48.960938 9.769531 48.960938 C 9.617188 48.960938 9.425781 48.976562 9.277344 48.984375 L 8.777344 48.984375 C 8.011719 48.984375 7.808594 48.960938 7.75 48.960938 C 7.71875 48.960938 7.59375 48.960938 7.59375 49.109375 C 7.59375 49.222656 7.695312 49.222656 7.824219 49.222656 C 8.085938 49.222656 8.316406 49.222656 8.316406 49.347656 C 8.316406 49.382812 8.308594 49.390625 8.285156 49.492188 L 7.21875 53.757812 C 7.148438 54.0625 7.132812 54.125 6.542969 54.125 C 6.390625 54.125 6.296875 54.125 6.296875 54.277344 C 6.296875 54.308594 6.320312 54.386719 6.425781 54.386719 C 6.574219 54.386719 6.765625 54.371094 6.917969 54.363281 L 7.425781 54.363281 C 8.1875 54.363281 8.394531 54.386719 8.449219 54.386719 C 8.5 54.386719 8.609375 54.386719 8.609375 54.234375 C 8.609375 54.125 8.507812 54.125 8.371094 54.125 C 8.347656 54.125 8.203125 54.125 8.070312 54.109375 C 7.902344 54.09375 7.886719 54.070312 7.886719 54 C 7.886719 53.957031 7.902344 53.910156 7.910156 53.871094 L 8.449219 51.695312 L 11.007812 51.695312 C 10.78125 52.632812 10.46875 53.871094 10.460938 53.871094 C 10.390625 54.117188 10.246094 54.117188 9.769531 54.125 C 9.675781 54.125 9.570312 54.125 9.570312 54.277344 C 9.570312 54.308594 9.59375 54.386719 9.699219 54.386719 C 9.851562 54.386719 10.039062 54.371094 10.191406 54.363281 L 10.699219 54.363281 C 11.460938 54.363281 11.667969 54.386719 11.722656 54.386719 C 11.773438 54.386719 11.882812 54.386719 11.882812 54.234375 C 11.882812 54.125 11.78125 54.125 11.644531 54.125 C 11.621094 54.125 11.476562 54.125 11.34375 54.109375 C 11.175781 54.09375 11.160156 54.070312 11.160156 54 C 11.160156 53.957031 11.175781 53.910156 11.183594 53.871094 Z M 16.359375 54.507812 C 17.003906 53.828125 17.140625 53.101562 17.140625 53.089844 C 17.140625 53.003906 17.050781 53.003906 17.03125 53.003906 C 16.941406 53.003906 16.9375 53.035156 16.90625 53.148438 C 16.769531 53.636719 16.496094 54.03125 16.339844 54.214844 C 16.328125 54.078125 16.328125 53.949219 16.316406 53.808594 C 16.238281 53.066406 15.671875 52.71875 15.09375 52.71875 C 14.183594 52.71875 13.3125 53.519531 13.3125 54.347656 C 13.3125 54.960938 13.777344 55.40625 14.476562 55.40625 C 14.792969 55.40625 15.320312 55.324219 15.925781 54.894531 C 16.011719 55.152344 16.222656 55.40625 16.585938 55.40625 C 16.9375 55.40625 17.164062 55.128906 17.164062 54.988281 C 17.164062 54.90625 17.082031 54.90625 17.054688 54.90625 C 16.988281 54.90625 16.964844 54.914062 16.9375 54.988281 C 16.882812 55.136719 16.710938 55.210938 16.605469 55.210938 C 16.511719 55.210938 16.402344 55.210938 16.359375 54.507812 Z M 15.875 54.679688 C 15.292969 55.136719 14.761719 55.210938 14.488281 55.210938 C 14.097656 55.210938 13.832031 54.972656 13.832031 54.542969 C 13.832031 54.335938 13.925781 53.785156 14.175781 53.433594 C 14.445312 53.046875 14.828125 52.917969 15.082031 52.917969 C 15.5 52.917969 15.714844 53.230469 15.800781 53.695312 C 15.847656 53.953125 15.839844 54.328125 15.875 54.679688 Z M 24.464844 49.007812 C 24.472656 48.976562 24.488281 48.929688 24.488281 48.886719 C 24.488281 48.832031 24.441406 48.792969 24.386719 48.792969 C 24.332031 48.792969 24.308594 48.816406 24.242188 48.886719 L 23.6875 49.5 C 23.613281 49.398438 23.195312 48.792969 22.265625 48.792969 C 20.421875 48.792969 18.5625 50.5 18.5625 52.328125 C 18.5625 53.710938 19.609375 54.554688 20.875 54.554688 C 21.914062 54.554688 22.796875 53.917969 23.226562 53.296875 C 23.488281 52.910156 23.589844 52.527344 23.589844 52.480469 C 23.589844 52.410156 23.542969 52.375 23.472656 52.375 C 23.378906 52.375 23.363281 52.417969 23.335938 52.503906 C 23.003906 53.601562 21.929688 54.292969 20.976562 54.292969 C 20.167969 54.292969 19.316406 53.816406 19.316406 52.601562 C 19.316406 52.34375 19.402344 51.019531 20.285156 50.023438 C 20.882812 49.359375 21.691406 49.054688 22.320312 49.054688 C 23.320312 49.054688 23.734375 49.859375 23.734375 50.613281 C 23.734375 50.722656 23.703125 50.875 23.703125 50.96875 C 23.703125 51.074219 23.804688 51.074219 23.839844 51.074219 C 23.941406 51.074219 23.957031 51.042969 23.988281 50.898438 Z M 27.691406 53.058594 C 27.703125 53.019531 27.710938 52.992188 27.710938 52.976562 C 27.710938 52.902344 27.65625 52.777344 27.496094 52.777344 C 27.394531 52.777344 27.292969 52.84375 27.25 52.925781 C 27.226562 52.96875 27.183594 53.152344 27.15625 53.269531 L 27.03125 53.761719 L 26.847656 54.507812 C 26.804688 54.675781 26.78125 54.769531 26.542969 54.996094 C 26.476562 55.054688 26.285156 55.210938 26.027344 55.210938 C 25.589844 55.210938 25.589844 54.824219 25.589844 54.714844 C 25.589844 54.453125 25.660156 54.183594 25.921875 53.53125 C 25.980469 53.386719 26 53.34375 26 53.238281 C 26 52.902344 25.699219 52.71875 25.402344 52.71875 C 24.796875 52.71875 24.503906 53.503906 24.503906 53.636719 C 24.503906 53.667969 24.527344 53.722656 24.609375 53.722656 C 24.695312 53.722656 24.710938 53.683594 24.730469 53.628906 C 24.894531 53.050781 25.214844 52.917969 25.378906 52.917969 C 25.5 52.917969 25.539062 52.992188 25.539062 53.128906 C 25.539062 53.253906 25.464844 53.457031 25.398438 53.621094 C 25.1875 54.144531 25.117188 54.417969 25.117188 54.632812 C 25.117188 55.199219 25.539062 55.40625 26.003906 55.40625 C 26.089844 55.40625 26.371094 55.40625 26.683594 55.132812 C 26.605469 55.460938 26.554688 55.691406 26.269531 56.003906 C 26.160156 56.121094 25.890625 56.367188 25.535156 56.367188 C 25.480469 56.367188 25.222656 56.359375 25.089844 56.207031 C 25.347656 56.160156 25.386719 55.925781 25.386719 55.871094 C 25.386719 55.710938 25.253906 55.644531 25.140625 55.644531 C 24.992188 55.644531 24.796875 55.765625 24.796875 56.039062 C 24.796875 56.324219 25.074219 56.5625 25.539062 56.5625 C 26.171875 56.5625 26.933594 56.097656 27.121094 55.355469 L 27.691406 53.058594 "/>
<path style="fill:none;stroke-width:20;stroke-linecap:round;stroke-linejoin:round;stroke:rgb(0%,50%,100%);stroke-opacity:1;stroke-miterlimit:10;" d="M 446.914062 455.321875 L 801.875 382.9 " transform="matrix(0.1,0,0,-0.1,0,96.79)"/>
<path style=" stroke:none;fill-rule:nonzero;fill:rgb(0%,50%,100%);fill-opacity:1;" d="M 75.550781 62.898438 C 75.632812 62.589844 75.648438 62.519531 76.203125 62.519531 C 76.386719 62.519531 76.480469 62.519531 76.480469 62.367188 C 76.480469 62.359375 76.472656 62.253906 76.347656 62.253906 C 76.195312 62.253906 76.007812 62.269531 75.855469 62.277344 L 75.355469 62.277344 C 74.589844 62.277344 74.382812 62.253906 74.328125 62.253906 C 74.296875 62.253906 74.167969 62.253906 74.167969 62.40625 C 74.167969 62.519531 74.273438 62.519531 74.398438 62.519531 C 74.660156 62.519531 74.894531 62.519531 74.894531 62.644531 C 74.894531 62.675781 74.886719 62.683594 74.859375 62.789062 L 74.382812 64.726562 L 71.824219 64.726562 L 72.285156 62.875 C 72.355469 62.589844 72.371094 62.519531 72.953125 62.519531 C 73.113281 62.519531 73.207031 62.519531 73.207031 62.367188 C 73.207031 62.359375 73.199219 62.253906 73.074219 62.253906 C 72.921875 62.253906 72.730469 62.269531 72.582031 62.277344 L 72.078125 62.277344 C 71.316406 62.277344 71.109375 62.253906 71.054688 62.253906 C 71.023438 62.253906 70.894531 62.253906 70.894531 62.40625 C 70.894531 62.519531 70.996094 62.519531 71.125 62.519531 C 71.390625 62.519531 71.617188 62.519531 71.617188 62.644531 C 71.617188 62.675781 71.609375 62.683594 71.585938 62.789062 L 70.523438 67.054688 C 70.453125 67.355469 70.433594 67.421875 69.847656 67.421875 C 69.695312 67.421875 69.597656 67.421875 69.597656 67.574219 C 69.597656 67.605469 69.625 67.683594 69.726562 67.683594 C 69.878906 67.683594 70.070312 67.667969 70.21875 67.660156 L 70.730469 67.660156 C 71.492188 67.660156 71.699219 67.683594 71.753906 67.683594 C 71.800781 67.683594 71.910156 67.683594 71.910156 67.53125 C 71.910156 67.421875 71.808594 67.421875 71.675781 67.421875 C 71.652344 67.421875 71.507812 67.421875 71.371094 67.40625 C 71.207031 67.390625 71.191406 67.367188 71.191406 67.292969 C 71.191406 67.253906 71.207031 67.207031 71.214844 67.167969 L 71.753906 64.988281 L 74.3125 64.988281 C 74.082031 65.925781 73.773438 67.167969 73.765625 67.167969 C 73.695312 67.414062 73.550781 67.414062 73.074219 67.421875 C 72.976562 67.421875 72.875 67.421875 72.875 67.574219 C 72.875 67.605469 72.898438 67.683594 73 67.683594 C 73.152344 67.683594 73.34375 67.667969 73.492188 67.660156 L 74.003906 67.660156 C 74.765625 67.660156 74.972656 67.683594 75.027344 67.683594 C 75.078125 67.683594 75.1875 67.683594 75.1875 67.53125 C 75.1875 67.421875 75.085938 67.421875 74.949219 67.421875 C 74.925781 67.421875 74.78125 67.421875 74.648438 67.40625 C 74.480469 67.390625 74.464844 67.367188 74.464844 67.292969 C 74.464844 67.253906 74.480469 67.207031 74.488281 67.167969 Z M 80.15625 65.734375 C 80.15625 65.289062 79.746094 64.921875 79.082031 64.921875 C 78.90625 64.921875 78.714844 64.976562 78.554688 65.058594 C 78.003906 65.339844 77.609375 65.929688 77.480469 66.460938 L 76.542969 70.203125 C 76.527344 70.261719 76.601562 70.28125 76.664062 70.28125 C 76.71875 70.28125 76.753906 70.273438 76.765625 70.21875 C 76.769531 70.214844 77.09375 68.925781 77.15625 68.65625 C 77.335938 69.023438 77.714844 69.183594 78.101562 69.183594 C 78.921875 69.183594 79.949219 68.617188 79.949219 67.695312 C 79.949219 67.371094 79.828125 67.023438 79.464844 66.769531 C 79.964844 66.453125 80.15625 66.109375 80.15625 65.734375 Z M 78.863281 66.761719 C 78.804688 66.773438 78.652344 66.789062 78.59375 66.789062 C 78.535156 66.789062 78.378906 66.789062 78.339844 66.769531 C 78.433594 66.757812 78.527344 66.75 78.625 66.75 C 78.695312 66.75 78.773438 66.757812 78.863281 66.761719 Z M 79.734375 65.671875 C 79.734375 66.09375 79.476562 66.472656 79.199219 66.632812 C 79.023438 66.570312 78.84375 66.554688 78.664062 66.554688 C 78.519531 66.554688 78.066406 66.542969 78.066406 66.78125 C 78.066406 67 78.445312 66.984375 78.59375 66.984375 C 78.738281 66.984375 79.054688 66.960938 79.179688 66.890625 C 79.34375 67.007812 79.484375 67.179688 79.484375 67.539062 C 79.484375 68.347656 78.933594 68.984375 78.09375 68.984375 C 77.65625 68.984375 77.289062 68.707031 77.289062 68.246094 C 77.289062 68.195312 77.289062 68.144531 77.300781 68.097656 L 77.707031 66.484375 C 77.851562 65.90625 78.421875 65.117188 79.089844 65.117188 C 79.449219 65.117188 79.734375 65.28125 79.734375 65.671875 Z M 87.53125 62.304688 C 87.535156 62.269531 87.554688 62.222656 87.554688 62.183594 C 87.554688 62.128906 87.503906 62.089844 87.449219 62.089844 C 87.394531 62.089844 87.371094 62.113281 87.304688 62.183594 L 86.75 62.796875 C 86.675781 62.691406 86.257812 62.089844 85.328125 62.089844 C 83.484375 62.089844 81.625 63.796875 81.625 65.625 C 81.625 67.007812 82.671875 67.851562 83.9375 67.851562 C 84.976562 67.851562 85.859375 67.214844 86.289062 66.59375 C 86.550781 66.207031 86.65625 65.824219 86.65625 65.777344 C 86.65625 65.707031 86.605469 65.671875 86.535156 65.671875 C 86.441406 65.671875 86.425781 65.714844 86.398438 65.800781 C 86.066406 66.894531 84.992188 67.589844 84.039062 67.589844 C 83.230469 67.589844 82.378906 67.113281 82.378906 65.894531 C 82.378906 65.640625 82.46875 64.316406 83.347656 63.320312 C 83.945312 62.652344 84.753906 62.351562 85.382812 62.351562 C 86.382812 62.351562 86.796875 63.152344 86.796875 63.910156 C 86.796875 64.019531 86.765625 64.171875 86.765625 64.265625 C 86.765625 64.371094 86.867188 64.371094 86.902344 64.371094 C 87.003906 64.371094 87.019531 64.339844 87.050781 64.195312 Z M 90.753906 66.355469 C 90.765625 66.3125 90.773438 66.289062 90.773438 66.269531 C 90.773438 66.199219 90.71875 66.074219 90.558594 66.074219 C 90.457031 66.074219 90.355469 66.140625 90.3125 66.222656 C 90.289062 66.265625 90.25 66.449219 90.21875 66.5625 L 90.09375 67.058594 L 89.910156 67.800781 C 89.867188 67.96875 89.84375 68.066406 89.605469 68.292969 C 89.539062 68.351562 89.347656 68.503906 89.09375 68.503906 C 88.652344 68.503906 88.652344 68.117188 88.652344 68.011719 C 88.652344 67.75 88.722656 67.480469 88.984375 66.824219 C 89.046875 66.683594 89.0625 66.640625 89.0625 66.535156 C 89.0625 66.199219 88.765625 66.015625 88.46875 66.015625 C 87.859375 66.015625 87.566406 66.800781 87.566406 66.933594 C 87.566406 66.960938 87.589844 67.015625 87.671875 67.015625 C 87.757812 67.015625 87.773438 66.980469 87.792969 66.925781 C 87.960938 66.347656 88.277344 66.210938 88.441406 66.210938 C 88.5625 66.210938 88.601562 66.289062 88.601562 66.425781 C 88.601562 66.550781 88.527344 66.753906 88.460938 66.914062 C 88.25 67.4375 88.179688 67.714844 88.179688 67.925781 C 88.179688 68.496094 88.601562 68.703125 89.070312 68.703125 C 89.152344 68.703125 89.433594 68.703125 89.75 68.429688 C 89.671875 68.753906 89.617188 68.988281 89.332031 69.300781 C 89.222656 69.417969 88.953125 69.660156 88.597656 69.660156 C 88.542969 69.660156 88.285156 69.65625 88.152344 69.5 C 88.410156 69.453125 88.449219 69.222656 88.449219 69.167969 C 88.449219 69.007812 88.316406 68.941406 88.203125 68.941406 C 88.054688 68.941406 87.859375 69.058594 87.859375 69.332031 C 87.859375 69.621094 88.140625 69.859375 88.601562 69.859375 C 89.234375 69.859375 89.996094 69.394531 90.183594 68.648438 L 90.753906 66.355469 "/>
</g>
</svg>
