<?xml version="1.0" encoding="UTF-8"?>
<svg xmlns="http://www.w3.org/2000/svg" xmlns:xlink="http://www.w3.org/1999/xlink" width="99px" height="74px" viewBox="0 0 99 74" version="1.1">
<defs>
<clipPath id="clip1">
  <path d="M 62.523438 29 L 99 29 L 99 31 L 62.523438 31 Z M 62.523438 29 "/>
</clipPath>
<clipPath id="clip2">
  <path d="M 62.523438 65.117188 L 99 65.117188 L 99 66.367188 L 62.523438 66.367188 Z M 62.523438 65.117188 "/>
</clipPath>
<clipPath id="clip3">
  <path d="M 62.523438 53 L 98.789062 53 L 98.789062 73.910156 L 62.523438 73.910156 Z M 62.523438 53 "/>
</clipPath>
<clipPath id="clip4">
  <path d="M 97.535156 65.117188 L 99 65.117188 L 99 66.367188 L 97.535156 66.367188 Z M 97.535156 65.117188 "/>
</clipPath>
</defs>
<g id="surface1">
<path style=" stroke:none;fill-rule:nonzero;fill:rgb(100%,82.352942%,82.352942%);fill-opacity:1;" d="M 45.320312 35.570312 L 48.867188 35.570312 L 48.867188 0.15625 L 45.320312 0.15625 L 45.320312 35.570312 "/>
<path style=" stroke:none;fill-rule:nonzero;fill:rgb(100%,82.352942%,82.352942%);fill-opacity:1;" d="M 45.320312 35.570312 L 62.144531 35.570312 L 62.144531 0.15625 L 45.320312 0.15625 L 45.320312 35.570312 "/>
<path style=" stroke:none;fill-rule:nonzero;fill:rgb(100%,82.352942%,82.352942%);fill-opacity:1;" d="M 58.601562 35.570312 L 62.144531 35.570312 L 62.144531 0.15625 L 58.601562 0.15625 L 58.601562 35.570312 "/>
<path style=" stroke:none;fill-rule:nonzero;fill:rgb(100%,82.352942%,82.352942%);fill-opacity:1;" d="M 45.320312 70.984375 L 62.144531 70.984375 L 62.144531 35.570312 L 45.320312 35.570312 L 45.320312 70.984375 "/>
<path style="fill:none;stroke-width:7.4932;stroke-linecap:round;stroke-linejoin:round;stroke:rgb(0%,0%,0%);stroke-opacity:1;stroke-miterlimit:10;" d="M 199.611853 349.035818 L 199.611853 349.035818 " transform="matrix(0.125047,0,0,-0.125047,0,73.90773)"/>
<path style=" stroke:none;fill-rule:nonzero;fill:rgb(25.098041%,25.098041%,25.098041%);fill-opacity:1;" d="M 24.960938 30.261719 L 27.617188 30.261719 L 27.617188 12.554688 L 24.960938 12.554688 L 24.960938 30.261719 "/>
<path style="fill:none;stroke-width:7.4932;stroke-linecap:round;stroke-linejoin:round;stroke:rgb(0%,0%,0%);stroke-opacity:1;stroke-miterlimit:10;" d="M 199.611853 349.035818 L 220.853803 349.035818 L 220.853803 490.638405 L 199.611853 490.638405 Z M 199.611853 349.035818 " transform="matrix(0.125047,0,0,-0.125047,0,73.90773)"/>
<path style="fill:none;stroke-width:7.4932;stroke-linecap:round;stroke-linejoin:round;stroke:rgb(0%,0%,0%);stroke-opacity:1;stroke-miterlimit:10;" d="M 220.853803 349.035818 L 220.853803 349.035818 " transform="matrix(0.125047,0,0,-0.125047,0,73.90773)"/>
<path style="fill:none;stroke-width:7.4932;stroke-linecap:round;stroke-linejoin:round;stroke:rgb(0%,0%,0%);stroke-opacity:1;stroke-miterlimit:10;" d="M 220.853803 349.035818 L 220.853803 349.035818 " transform="matrix(0.125047,0,0,-0.125047,0,73.90773)"/>
<path style=" stroke:none;fill-rule:nonzero;fill:rgb(100%,100%,100%);fill-opacity:1;" d="M 28.839844 25.855469 L 39.671875 25.855469 L 39.671875 16.953125 L 28.839844 16.953125 L 28.839844 25.855469 "/>
<path style="fill:none;stroke-width:7.4932;stroke-linecap:round;stroke-linejoin:round;stroke:rgb(0%,0%,0%);stroke-opacity:1;stroke-miterlimit:10;" d="M 220.853803 349.035818 L 327.032315 349.035818 " transform="matrix(0.125047,0,0,-0.125047,0,73.90773)"/>
<path style="fill:none;stroke-width:7.4932;stroke-linecap:round;stroke-linejoin:round;stroke:rgb(0%,0%,0%);stroke-opacity:1;stroke-miterlimit:10;" d="M 327.032315 349.035818 L 327.032315 349.035818 " transform="matrix(0.125047,0,0,-0.125047,0,73.90773)"/>
<path style="fill:none;stroke-width:7.4932;stroke-linecap:round;stroke-linejoin:round;stroke:rgb(0%,0%,0%);stroke-opacity:1;stroke-miterlimit:10;" d="M 327.032315 349.035818 L 327.032315 349.035818 " transform="matrix(0.125047,0,0,-0.125047,0,73.90773)"/>
<path style=" stroke:none;fill-rule:nonzero;fill:rgb(25.098041%,25.098041%,25.098041%);fill-opacity:1;" d="M 40.894531 30.261719 L 47.09375 30.261719 L 47.09375 12.554688 L 40.894531 12.554688 L 40.894531 30.261719 "/>
<path style="fill:none;stroke-width:7.4932;stroke-linecap:round;stroke-linejoin:round;stroke:rgb(0%,0%,0%);stroke-opacity:1;stroke-miterlimit:10;" d="M 327.032315 349.035818 L 376.607277 349.035818 L 376.607277 490.638405 L 327.032315 490.638405 Z M 327.032315 349.035818 " transform="matrix(0.125047,0,0,-0.125047,0,73.90773)"/>
<path style="fill:none;stroke-width:7.4932;stroke-linecap:round;stroke-linejoin:round;stroke:rgb(0%,0%,0%);stroke-opacity:1;stroke-miterlimit:10;" d="M 376.607277 349.035818 L 376.607277 349.035818 " transform="matrix(0.125047,0,0,-0.125047,0,73.90773)"/>
<path style="fill:none;stroke-width:7.4932;stroke-linecap:round;stroke-linejoin:round;stroke:rgb(0%,0%,0%);stroke-opacity:1;stroke-miterlimit:10;" d="M 376.607277 349.035818 L 376.607277 349.035818 " transform="matrix(0.125047,0,0,-0.125047,0,73.90773)"/>
<path style=" stroke:none;fill-rule:nonzero;fill:rgb(100%,82.352942%,82.352942%);fill-opacity:1;" d="M 48.3125 25.855469 L 59.148438 25.855469 L 59.148438 16.953125 L 48.3125 16.953125 L 48.3125 25.855469 "/>
<path style="fill:none;stroke-width:7.4932;stroke-linecap:round;stroke-linejoin:round;stroke:rgb(0%,0%,0%);stroke-opacity:1;stroke-miterlimit:10;" d="M 376.607277 349.035818 L 482.817027 349.035818 " transform="matrix(0.125047,0,0,-0.125047,0,73.90773)"/>
<path style="fill:none;stroke-width:7.4932;stroke-linecap:round;stroke-linejoin:round;stroke:rgb(0%,0%,0%);stroke-opacity:1;stroke-miterlimit:10;" d="M 482.817027 349.035818 L 482.817027 349.035818 " transform="matrix(0.125047,0,0,-0.125047,0,73.90773)"/>
<path style="fill:none;stroke-width:7.4932;stroke-linecap:round;stroke-linejoin:round;stroke:rgb(0%,0%,0%);stroke-opacity:1;stroke-miterlimit:10;" d="M 482.817027 349.035818 L 482.817027 349.035818 " transform="matrix(0.125047,0,0,-0.125047,0,73.90773)"/>
<path style=" stroke:none;fill-rule:nonzero;fill:rgb(100%,100%,100%);fill-opacity:1;" d="M 58.425781 9.667969 L 64.976562 9.667969 L 64.976562 1.269531 L 58.425781 1.269531 L 58.425781 9.667969 "/>
<path style=" stroke:none;fill-rule:nonzero;fill:rgb(25.098041%,25.098041%,25.098041%);fill-opacity:1;" d="M 60.375 30.261719 L 63.03125 30.261719 L 63.03125 12.554688 L 60.375 12.554688 L 60.375 30.261719 "/>
<path style="fill:none;stroke-width:7.4932;stroke-linecap:round;stroke-linejoin:round;stroke:rgb(0%,0%,0%);stroke-opacity:1;stroke-miterlimit:10;" d="M 482.817027 349.035818 L 504.058977 349.035818 L 504.058977 490.638405 L 482.817027 490.638405 Z M 482.817027 349.035818 " transform="matrix(0.125047,0,0,-0.125047,0,73.90773)"/>
<path style="fill:none;stroke-width:7.4932;stroke-linecap:round;stroke-linejoin:round;stroke:rgb(0%,0%,0%);stroke-opacity:1;stroke-miterlimit:10;" d="M 504.058977 349.035818 L 504.058977 349.035818 " transform="matrix(0.125047,0,0,-0.125047,0,73.90773)"/>
<g clip-path="url(#clip1)" clip-rule="nonzero">
<path style="fill:none;stroke-width:7.4932;stroke-linecap:round;stroke-linejoin:round;stroke:rgb(0%,0%,0%);stroke-opacity:1;stroke-miterlimit:10;" d="M 504.058977 349.035818 L 787.264151 349.035818 " transform="matrix(0.125047,0,0,-0.125047,0,73.90773)"/>
</g>
<path style="fill:none;stroke-width:7.4932;stroke-linecap:round;stroke-linejoin:round;stroke:rgb(0%,0%,0%);stroke-opacity:1;stroke-miterlimit:10;" d="M 199.611853 65.861883 L 220.853803 65.861883 " transform="matrix(0.125047,0,0,-0.125047,0,73.90773)"/>
<path style="fill:none;stroke-width:7.4932;stroke-linecap:round;stroke-linejoin:round;stroke:rgb(0%,0%,0%);stroke-opacity:1;stroke-miterlimit:10;" d="M 220.853803 65.861883 L 327.032315 65.861883 " transform="matrix(0.125047,0,0,-0.125047,0,73.90773)"/>
<path style="fill:none;stroke-width:7.4932;stroke-linecap:round;stroke-linejoin:round;stroke:rgb(0%,0%,0%);stroke-opacity:1;stroke-miterlimit:10;" d="M 327.032315 65.861883 L 327.032315 65.861883 " transform="matrix(0.125047,0,0,-0.125047,0,73.90773)"/>
<path style=" stroke:none;fill-rule:nonzero;fill:rgb(25.098041%,25.098041%,25.098041%);fill-opacity:1;" d="M 40.894531 65.671875 L 47.09375 65.671875 L 47.09375 47.96875 L 40.894531 47.96875 L 40.894531 65.671875 "/>
<path style="fill:none;stroke-width:7.4932;stroke-linecap:round;stroke-linejoin:round;stroke:rgb(0%,0%,0%);stroke-opacity:1;stroke-miterlimit:10;" d="M 327.032315 65.861883 L 376.607277 65.861883 L 376.607277 207.433231 L 327.032315 207.433231 Z M 327.032315 65.861883 " transform="matrix(0.125047,0,0,-0.125047,0,73.90773)"/>
<path style="fill:none;stroke-width:7.4932;stroke-linecap:round;stroke-linejoin:round;stroke:rgb(0%,0%,0%);stroke-opacity:1;stroke-miterlimit:10;" d="M 376.607277 65.861883 L 376.607277 65.861883 " transform="matrix(0.125047,0,0,-0.125047,0,73.90773)"/>
<path style="fill:none;stroke-width:7.4932;stroke-linecap:round;stroke-linejoin:round;stroke:rgb(0%,0%,0%);stroke-opacity:1;stroke-miterlimit:10;" d="M 376.607277 65.861883 L 482.817027 65.861883 " transform="matrix(0.125047,0,0,-0.125047,0,73.90773)"/>
<path style="fill:none;stroke-width:7.4932;stroke-linecap:round;stroke-linejoin:round;stroke:rgb(0%,0%,0%);stroke-opacity:1;stroke-miterlimit:10;" d="M 482.817027 65.861883 L 482.817027 65.861883 " transform="matrix(0.125047,0,0,-0.125047,0,73.90773)"/>
<path style=" stroke:none;fill-rule:nonzero;fill:rgb(25.098041%,25.098041%,25.098041%);fill-opacity:1;" d="M 60.375 65.671875 L 63.03125 65.671875 L 63.03125 47.96875 L 60.375 47.96875 L 60.375 65.671875 "/>
<path style="fill:none;stroke-width:7.4932;stroke-linecap:round;stroke-linejoin:round;stroke:rgb(0%,0%,0%);stroke-opacity:1;stroke-miterlimit:10;" d="M 482.817027 65.861883 L 504.058977 65.861883 L 504.058977 207.433231 L 482.817027 207.433231 Z M 482.817027 65.861883 " transform="matrix(0.125047,0,0,-0.125047,0,73.90773)"/>
<path style="fill:none;stroke-width:7.4932;stroke-linecap:round;stroke-linejoin:round;stroke:rgb(0%,0%,0%);stroke-opacity:1;stroke-miterlimit:10;" d="M 504.058977 65.861883 L 504.058977 65.861883 " transform="matrix(0.125047,0,0,-0.125047,0,73.90773)"/>
<path style="fill:none;stroke-width:7.4932;stroke-linecap:round;stroke-linejoin:round;stroke:rgb(0%,0%,0%);stroke-opacity:1;stroke-miterlimit:10;" d="M 504.058977 65.861883 L 504.058977 65.861883 " transform="matrix(0.125047,0,0,-0.125047,0,73.90773)"/>
<g clip-path="url(#clip2)" clip-rule="nonzero">
<path style="fill:none;stroke-width:7.4932;stroke-linecap:round;stroke-linejoin:round;stroke:rgb(0%,0%,0%);stroke-opacity:1;stroke-miterlimit:10;" d="M 504.058977 65.861883 L 787.264151 65.861883 " transform="matrix(0.125047,0,0,-0.125047,0,73.90773)"/>
</g>
<path style=" stroke:none;fill-rule:nonzero;fill:rgb(100%,72.156864%,72.156864%);fill-opacity:1;" d="M 63.03125 65.671875 L 63.382812 65.433594 L 63.738281 65.121094 L 64.089844 65.53125 L 64.449219 67.222656 L 64.800781 69.933594 L 65.15625 72.546875 L 65.507812 73.597656 L 65.863281 72 L 66.214844 67.746094 L 66.574219 62.003906 L 66.925781 56.71875 L 67.28125 53.753906 L 67.632812 54.105469 L 67.988281 57.488281 L 68.339844 62.519531 L 68.699219 67.355469 L 69.050781 70.503906 L 69.40625 71.371094 L 69.757812 70.328125 L 70.113281 68.390625 L 70.464844 66.601562 L 70.824219 65.59375 L 71.175781 65.375 L 71.53125 65.550781 L 71.882812 65.671875 L 72.238281 65.5625 L 72.589844 65.410156 L 72.949219 65.605469 L 73.300781 66.40625 L 73.65625 67.6875 L 74.007812 68.921875 L 74.363281 69.414062 L 74.714844 68.664062 L 75.074219 66.652344 L 75.425781 63.941406 L 75.78125 61.445312 L 76.132812 60.042969 L 76.488281 60.207031 L 76.839844 61.804688 L 77.195312 64.183594 L 77.550781 66.464844 L 77.90625 67.953125 L 78.257812 68.363281 L 78.613281 67.871094 L 78.964844 66.953125 L 79.320312 66.113281 L 79.671875 65.632812 L 80.03125 65.53125 L 80.382812 65.613281 L 80.738281 65.671875 L 81.089844 65.621094 L 81.445312 65.546875 L 81.796875 65.640625 L 82.15625 66.019531 L 82.507812 66.621094 L 82.863281 67.207031 L 83.214844 67.441406 L 83.570312 67.085938 L 83.921875 66.132812 L 84.28125 64.851562 L 84.632812 63.675781 L 84.988281 63.011719 L 85.339844 63.089844 L 85.695312 63.847656 L 86.046875 64.96875 L 86.40625 66.046875 L 86.757812 66.75 L 87.113281 66.945312 L 87.464844 66.710938 L 87.820312 66.28125 L 88.171875 65.878906 L 88.53125 65.652344 L 88.882812 65.605469 L 89.238281 65.644531 L 89.589844 65.671875 L 89.945312 65.648438 L 90.296875 65.613281 L 90.65625 65.660156 L 91.007812 65.835938 L 91.363281 66.125 L 91.714844 66.398438 L 92.070312 66.507812 L 92.421875 66.339844 L 92.777344 65.890625 L 93.132812 65.289062 L 93.488281 64.726562 L 93.839844 64.417969 L 94.195312 64.453125 L 94.546875 64.808594 L 94.902344 65.339844 L 95.253906 65.847656 L 95.613281 66.183594 L 95.964844 66.273438 L 96.320312 66.164062 L 96.671875 65.957031 L 97.027344 65.769531 L 97.378906 65.664062 L 97.738281 65.640625 L 98.089844 65.660156 L 98.445312 65.671875 L 63.03125 65.671875 "/>
<path style=" stroke:none;fill-rule:nonzero;fill:rgb(72.156864%,72.156864%,100%);fill-opacity:1;" d="M 63.03125 65.671875 L 63.382812 63.796875 L 63.738281 63.519531 L 64.089844 65.320312 L 64.449219 68.496094 L 64.800781 71.535156 L 65.15625 72.996094 L 65.507812 72.230469 L 65.863281 69.6875 L 66.214844 66.644531 L 66.574219 64.480469 L 66.925781 63.964844 L 67.28125 64.921875 L 67.632812 66.402344 L 67.988281 67.230469 L 68.339844 66.699219 L 68.699219 64.882812 L 69.050781 62.605469 L 69.40625 60.960938 L 69.757812 60.714844 L 70.113281 61.933594 L 70.464844 63.980469 L 70.824219 65.867188 L 71.175781 66.816406 L 71.53125 66.613281 L 71.882812 65.671875 L 72.238281 64.789062 L 72.589844 64.65625 L 72.949219 65.507812 L 73.300781 67.007812 L 73.65625 68.441406 L 74.007812 69.132812 L 74.363281 68.769531 L 74.714844 67.570312 L 75.074219 66.132812 L 75.425781 65.105469 L 75.78125 64.867188 L 76.132812 65.316406 L 76.488281 66.015625 L 76.839844 66.410156 L 77.195312 66.15625 L 77.550781 65.296875 L 77.90625 64.222656 L 78.257812 63.445312 L 78.613281 63.328125 L 78.964844 63.90625 L 79.320312 64.871094 L 79.671875 65.765625 L 80.03125 66.214844 L 80.382812 66.117188 L 80.738281 65.671875 L 81.089844 65.253906 L 81.445312 65.191406 L 81.796875 65.59375 L 82.15625 66.304688 L 82.507812 66.984375 L 82.863281 67.304688 L 83.214844 67.132812 L 83.570312 66.566406 L 83.921875 65.890625 L 84.28125 65.40625 L 84.632812 65.292969 L 84.988281 65.503906 L 85.339844 65.835938 L 85.695312 66.019531 L 86.046875 65.902344 L 86.40625 65.496094 L 86.757812 64.988281 L 87.113281 64.617188 L 87.464844 64.566406 L 87.820312 64.839844 L 88.171875 65.292969 L 88.53125 65.71875 L 88.882812 65.929688 L 89.238281 65.882812 L 89.589844 65.671875 L 89.945312 65.472656 L 90.296875 65.445312 L 90.65625 65.632812 L 91.007812 65.972656 L 91.363281 66.289062 L 91.714844 66.445312 L 92.070312 66.363281 L 92.421875 66.09375 L 92.777344 65.777344 L 93.132812 65.546875 L 93.488281 65.492188 L 93.839844 65.59375 L 94.195312 65.746094 L 94.546875 65.835938 L 94.902344 65.78125 L 95.253906 65.589844 L 95.613281 65.351562 L 95.964844 65.175781 L 96.320312 65.152344 L 96.671875 65.277344 L 97.027344 65.492188 L 97.378906 65.691406 L 97.738281 65.789062 L 98.089844 65.769531 L 98.445312 65.671875 L 63.03125 65.671875 "/>
<g clip-path="url(#clip3)" clip-rule="nonzero">
<path style="fill:none;stroke-width:4.99547;stroke-linecap:round;stroke-linejoin:round;stroke:rgb(100%,21.960784%,21.960784%);stroke-opacity:1;stroke-miterlimit:10;" d="M 504.058977 65.861883 L 506.870412 67.767411 L 509.713084 70.266463 L 512.524519 66.986457 L 515.39843 53.460332 L 518.209864 31.781048 L 521.052537 10.882718 L 523.863972 2.479653 L 526.706644 15.256061 L 529.518079 49.274419 L 532.39199 95.194517 L 535.203424 137.459749 L 538.046097 161.169514 L 540.857532 158.358079 L 543.700204 131.305831 L 546.511639 91.071079 L 549.38555 52.398235 L 552.196984 27.220277 L 555.039657 20.285405 L 557.851091 28.625994 L 560.693764 44.120122 L 563.505199 58.4272 L 566.37911 66.486646 L 569.190544 68.235983 L 572.033217 66.830266 L 574.844651 65.861883 L 577.687324 66.736551 L 580.498759 67.95484 L 583.37267 66.392931 L 586.184104 59.989108 L 589.026777 49.742991 L 591.838211 39.871732 L 594.680884 35.935724 L 597.492319 41.933451 L 600.36623 58.021104 L 603.177664 79.700388 L 606.020337 99.661574 L 608.831771 110.876074 L 611.674444 109.564071 L 614.485879 96.787663 L 617.328551 77.763622 L 620.171224 59.520536 L 623.013897 47.618796 L 625.825331 44.338789 L 628.668004 48.274798 L 631.479439 55.615766 L 634.322111 62.33197 L 637.133546 66.174264 L 640.007457 66.986457 L 642.818891 66.330455 L 645.661564 65.861883 L 648.472999 66.267979 L 651.315671 66.861504 L 654.127106 66.111788 L 657.001017 63.081686 L 659.812451 58.271009 L 662.655124 53.585285 L 665.466558 51.710995 L 668.309231 54.553668 L 671.120666 62.17578 L 673.994577 72.421897 L 676.806011 81.824583 L 679.648684 87.135071 L 682.460118 86.510308 L 685.302791 80.450104 L 688.114226 71.484752 L 690.988137 62.863019 L 693.799571 57.24015 L 696.642244 55.678242 L 699.453678 57.552532 L 702.296351 60.988729 L 705.107786 64.20626 L 707.981697 66.018073 L 710.793131 66.392931 L 713.635804 66.08055 L 716.447238 65.861883 L 719.289911 66.049312 L 722.101346 66.330455 L 724.975257 65.955597 L 727.786691 64.54988 L 730.629364 62.238256 L 733.440798 60.051585 L 736.283471 59.176916 L 739.094906 60.520157 L 741.937578 64.112546 L 744.780251 68.923223 L 747.622924 73.421518 L 750.434358 75.889333 L 753.277031 75.608189 L 756.088466 72.765516 L 758.931138 68.517126 L 761.742573 64.456165 L 764.616484 61.769684 L 767.427918 61.051206 L 770.270591 61.925874 L 773.082026 63.581497 L 775.924698 65.080929 L 778.736133 65.924359 L 781.610044 66.111788 L 784.421478 65.955597 L 787.264151 65.861883 " transform="matrix(0.125047,0,0,-0.125047,0,73.90773)"/>
</g>
<path style="fill:none;stroke-width:4.99547;stroke-linecap:round;stroke-linejoin:round;stroke:rgb(21.960784%,21.960784%,100%);stroke-opacity:1;stroke-miterlimit:10;" d="M 504.058977 65.861883 L 506.870412 80.8562 L 509.713084 83.07411 L 512.524519 68.673317 L 515.39843 43.276692 L 518.209864 18.973402 L 521.052537 7.29033 L 523.863972 13.413009 L 526.706644 33.749052 L 529.518079 58.08358 L 532.39199 75.389522 L 535.203424 79.512959 L 538.046097 71.85961 L 540.857532 60.020346 L 543.700204 53.397856 L 546.511639 57.646246 L 549.38555 72.171991 L 552.196984 90.38384 L 555.039657 103.535106 L 557.851091 105.50311 L 560.693764 95.756803 L 563.505199 79.388007 L 566.37911 64.299975 L 569.190544 56.709101 L 572.033217 58.333486 L 574.844651 65.861883 L 577.687324 72.921707 L 580.498759 73.983805 L 583.37267 67.173885 L 586.184104 55.178431 L 589.026777 43.714026 L 591.838211 38.184871 L 594.680884 41.09002 L 597.492319 50.680136 L 600.36623 62.17578 L 603.177664 70.391416 L 606.020337 72.296944 L 608.831771 68.704555 L 611.674444 63.112924 L 614.485879 59.95787 L 617.328551 61.988351 L 620.171224 68.860746 L 623.013897 77.451241 L 625.825331 83.667635 L 628.668004 84.60478 L 631.479439 79.981532 L 634.322111 72.265706 L 637.133546 65.112167 L 640.007457 61.519778 L 642.818891 62.300732 L 645.661564 65.861883 L 648.472999 69.204366 L 651.315671 69.704177 L 654.127106 66.486646 L 657.001017 60.8013 L 659.812451 55.36586 L 662.655124 52.804331 L 665.466558 54.17881 L 668.309231 58.708344 L 671.120666 64.112546 L 673.994577 67.986078 L 676.806011 68.891984 L 679.648684 67.205124 L 682.460118 64.54988 L 685.302791 63.081686 L 688.114226 64.018831 L 690.988137 67.2676 L 693.799571 71.328561 L 696.642244 74.296186 L 699.453678 74.702282 L 702.296351 72.515611 L 705.107786 68.891984 L 707.981697 65.487025 L 710.793131 63.800164 L 713.635804 64.175022 L 716.447238 65.861883 L 719.289911 67.455029 L 722.101346 67.673696 L 724.975257 66.174264 L 727.786691 63.456544 L 730.629364 60.926253 L 733.440798 59.676727 L 736.283471 60.332728 L 739.094906 62.488161 L 741.937578 65.018452 L 744.780251 66.861504 L 747.622924 67.298838 L 750.434358 66.486646 L 753.277031 65.268358 L 756.088466 64.54988 L 758.931138 64.987214 L 761.742573 66.517884 L 764.616484 68.423412 L 767.427918 69.829129 L 770.270591 70.016558 L 773.082026 69.016937 L 775.924698 67.298838 L 778.736133 65.705692 L 781.610044 64.924738 L 784.421478 65.080929 L 787.264151 65.861883 " transform="matrix(0.125047,0,0,-0.125047,0,73.90773)"/>
<g clip-path="url(#clip4)" clip-rule="nonzero">
<path style="fill:none;stroke-width:7.4932;stroke-linecap:round;stroke-linejoin:round;stroke:rgb(0%,0%,0%);stroke-opacity:1;stroke-miterlimit:10;" d="M 787.264151 65.861883 L 787.264151 65.861883 " transform="matrix(0.125047,0,0,-0.125047,0,73.90773)"/>
</g>
<path style=" stroke:none;fill-rule:nonzero;fill:rgb(0%,0%,0%);fill-opacity:1;" d="M 5.003906 15.398438 L 4.769531 15.398438 C 4.125 15.984375 3.324219 16.023438 2.71875 16.042969 L 2.71875 16.6875 C 3.109375 16.667969 3.597656 16.648438 4.105469 16.453125 L 4.105469 21.511719 L 2.777344 21.511719 L 2.777344 22.136719 L 6.332031 22.136719 L 6.332031 21.511719 L 5.003906 21.511719 Z M 5.003906 15.398438 "/>
<path style=" stroke:none;fill-rule:nonzero;fill:rgb(0%,0%,0%);fill-opacity:1;" d="M 16.015625 17.632812 L 14.804688 17.632812 L 14.804688 21.753906 L 10.152344 21.753906 L 10.152344 17.632812 L 8.941406 17.632812 L 8.941406 27.089844 L 10.152344 27.089844 L 10.152344 22.597656 L 14.804688 22.597656 L 14.804688 27.089844 L 16.015625 27.089844 Z M 16.015625 17.632812 "/>
<path style=" stroke:none;fill-rule:nonzero;fill:rgb(0%,0%,0%);fill-opacity:1;" d="M 34.679688 17.363281 C 34.582031 17.167969 34.523438 17.109375 34.347656 17.109375 C 34.191406 17.109375 34.132812 17.167969 34.054688 17.324219 L 30.1875 24.867188 C 30.128906 24.964844 30.109375 25.023438 30.109375 25.042969 C 30.109375 25.140625 30.1875 25.140625 30.363281 25.140625 L 38.332031 25.140625 C 38.527344 25.140625 38.605469 25.140625 38.605469 25.042969 C 38.605469 25.023438 38.605469 25.003906 38.546875 24.886719 Z M 33.976562 18.222656 L 37.101562 24.28125 L 30.871094 24.28125 Z M 33.976562 18.222656 "/>
<path style=" stroke:none;fill-rule:nonzero;fill:rgb(0%,0%,0%);fill-opacity:1;" d="M 54.1875 17.363281 C 54.089844 17.167969 54.03125 17.109375 53.855469 17.109375 C 53.699219 17.109375 53.640625 17.167969 53.5625 17.324219 L 49.695312 24.867188 C 49.636719 24.964844 49.617188 25.023438 49.617188 25.042969 C 49.617188 25.140625 49.695312 25.140625 49.871094 25.140625 L 57.839844 25.140625 C 58.035156 25.140625 58.113281 25.140625 58.113281 25.042969 C 58.113281 25.023438 58.113281 25.003906 58.054688 24.886719 Z M 53.484375 18.222656 L 56.609375 24.28125 L 50.378906 24.28125 Z M 53.484375 18.222656 "/>
<path style=" stroke:none;fill-rule:nonzero;fill:rgb(0%,0%,0%);fill-opacity:1;" d="M 64.261719 1.851562 L 63.382812 1.851562 C 62.523438 3.902344 61.917969 5.386719 61.859375 6.167969 C 61.820312 5.660156 61.351562 4.507812 61.214844 4.175781 C 60.761719 3.023438 60.566406 2.652344 60.214844 1.851562 L 59.277344 1.851562 L 61.527344 6.832031 L 61.117188 7.828125 C 60.824219 8.453125 60.605469 8.453125 60.449219 8.453125 C 60.273438 8.453125 59.863281 8.414062 59.53125 8.257812 L 59.609375 9.039062 C 59.628906 9.058594 60.058594 9.136719 60.429688 9.136719 C 60.742188 9.136719 61.214844 9.136719 61.78125 7.789062 Z M 64.261719 1.851562 "/>
<path style=" stroke:none;fill-rule:nonzero;fill:rgb(0%,0%,0%);fill-opacity:1;" d="M 13.292969 56.621094 L 16.578125 52.144531 L 15.265625 52.144531 L 12.707031 55.703125 L 10.050781 52.144531 L 8.644531 52.144531 L 12.121094 56.621094 L 8.449219 61.601562 L 9.757812 61.601562 L 12.707031 57.421875 L 15.738281 61.601562 L 17.144531 61.601562 Z M 13.292969 56.621094 "/>
</g>
</svg>
