<?xml version="1.0" encoding="UTF-8"?>
<svg xmlns="http://www.w3.org/2000/svg" xmlns:xlink="http://www.w3.org/1999/xlink" width="99px" height="74px" viewBox="0 0 99 74" version="1.1">
<defs>
<clipPath id="clip1">
  <path d="M 62.523438 29 L 99 29 L 99 31 L 62.523438 31 Z M 62.523438 29 "/>
</clipPath>
<clipPath id="clip2">
  <path d="M 62.523438 65 L 99 65 L 99 66.484375 L 62.523438 66.484375 Z M 62.523438 65 "/>
</clipPath>
<clipPath id="clip3">
  <path d="M 63 53 L 98.789062 53 L 98.789062 73.789062 L 63 73.789062 Z M 63 53 "/>
</clipPath>
<clipPath id="clip4">
  <path d="M 63 60.234375 L 98.789062 60.234375 L 98.789062 73 L 63 73 Z M 63 60.234375 "/>
</clipPath>
<clipPath id="clip5">
  <path d="M 62.523438 53 L 98.789062 53 L 98.789062 73.789062 L 62.523438 73.789062 Z M 62.523438 53 "/>
</clipPath>
<clipPath id="clip6">
  <path d="M 62.523438 60.234375 L 98.789062 60.234375 L 98.789062 73.789062 L 62.523438 73.789062 Z M 62.523438 60.234375 "/>
</clipPath>
<clipPath id="clip7">
  <path d="M 97.535156 65 L 99 65 L 99 66.484375 L 97.535156 66.484375 Z M 97.535156 65 "/>
</clipPath>
</defs>
<g id="surface1">
<path style="fill:none;stroke-width:7.4932;stroke-linecap:round;stroke-linejoin:round;stroke:rgb(0%,0%,0%);stroke-opacity:1;stroke-miterlimit:10;" d="M 199.611853 349.054208 L 199.611853 349.054208 " transform="matrix(0.125047,0,0,-0.125047,0,73.788936)"/>
<path style=" stroke:none;fill-rule:nonzero;fill:rgb(25.098041%,25.098041%,25.098041%);fill-opacity:1;" d="M 24.960938 30.140625 L 27.617188 30.140625 L 27.617188 12.433594 L 24.960938 12.433594 L 24.960938 30.140625 "/>
<path style="fill:none;stroke-width:7.4932;stroke-linecap:round;stroke-linejoin:round;stroke:rgb(0%,0%,0%);stroke-opacity:1;stroke-miterlimit:10;" d="M 199.611853 349.054208 L 220.853803 349.054208 L 220.853803 490.656795 L 199.611853 490.656795 Z M 199.611853 349.054208 " transform="matrix(0.125047,0,0,-0.125047,0,73.788936)"/>
<path style="fill:none;stroke-width:7.4932;stroke-linecap:round;stroke-linejoin:round;stroke:rgb(0%,0%,0%);stroke-opacity:1;stroke-miterlimit:10;" d="M 220.853803 349.054208 L 220.853803 349.054208 " transform="matrix(0.125047,0,0,-0.125047,0,73.788936)"/>
<path style="fill:none;stroke-width:7.4932;stroke-linecap:round;stroke-linejoin:round;stroke:rgb(0%,0%,0%);stroke-opacity:1;stroke-miterlimit:10;" d="M 220.853803 349.054208 L 220.853803 349.054208 " transform="matrix(0.125047,0,0,-0.125047,0,73.788936)"/>
<path style=" stroke:none;fill-rule:nonzero;fill:rgb(100%,100%,100%);fill-opacity:1;" d="M 28.839844 25.734375 L 39.671875 25.734375 L 39.671875 16.839844 L 28.839844 16.839844 L 28.839844 25.734375 "/>
<path style="fill:none;stroke-width:7.4932;stroke-linecap:round;stroke-linejoin:round;stroke:rgb(0%,0%,0%);stroke-opacity:1;stroke-miterlimit:10;" d="M 220.853803 349.054208 L 327.032315 349.054208 " transform="matrix(0.125047,0,0,-0.125047,0,73.788936)"/>
<path style="fill:none;stroke-width:7.4932;stroke-linecap:round;stroke-linejoin:round;stroke:rgb(0%,0%,0%);stroke-opacity:1;stroke-miterlimit:10;" d="M 327.032315 349.054208 L 327.032315 349.054208 " transform="matrix(0.125047,0,0,-0.125047,0,73.788936)"/>
<path style="fill:none;stroke-width:7.4932;stroke-linecap:round;stroke-linejoin:round;stroke:rgb(0%,0%,0%);stroke-opacity:1;stroke-miterlimit:10;" d="M 327.032315 349.054208 L 327.032315 349.054208 " transform="matrix(0.125047,0,0,-0.125047,0,73.788936)"/>
<path style=" stroke:none;fill-rule:nonzero;fill:rgb(25.098041%,25.098041%,25.098041%);fill-opacity:1;" d="M 40.894531 30.140625 L 47.09375 30.140625 L 47.09375 12.433594 L 40.894531 12.433594 L 40.894531 30.140625 "/>
<path style="fill:none;stroke-width:7.4932;stroke-linecap:round;stroke-linejoin:round;stroke:rgb(0%,0%,0%);stroke-opacity:1;stroke-miterlimit:10;" d="M 327.032315 349.054208 L 376.607277 349.054208 L 376.607277 490.656795 L 327.032315 490.656795 Z M 327.032315 349.054208 " transform="matrix(0.125047,0,0,-0.125047,0,73.788936)"/>
<path style="fill:none;stroke-width:7.4932;stroke-linecap:round;stroke-linejoin:round;stroke:rgb(0%,0%,0%);stroke-opacity:1;stroke-miterlimit:10;" d="M 376.607277 349.054208 L 376.607277 349.054208 " transform="matrix(0.125047,0,0,-0.125047,0,73.788936)"/>
<path style="fill:none;stroke-width:7.4932;stroke-linecap:round;stroke-linejoin:round;stroke:rgb(0%,0%,0%);stroke-opacity:1;stroke-miterlimit:10;" d="M 376.607277 349.054208 L 376.607277 349.054208 " transform="matrix(0.125047,0,0,-0.125047,0,73.788936)"/>
<path style=" stroke:none;fill-rule:nonzero;fill:rgb(100%,100%,100%);fill-opacity:1;" d="M 48.3125 25.734375 L 59.148438 25.734375 L 59.148438 16.839844 L 48.3125 16.839844 L 48.3125 25.734375 "/>
<path style="fill:none;stroke-width:7.4932;stroke-linecap:round;stroke-linejoin:round;stroke:rgb(0%,0%,0%);stroke-opacity:1;stroke-miterlimit:10;" d="M 376.607277 349.054208 L 482.817027 349.054208 " transform="matrix(0.125047,0,0,-0.125047,0,73.788936)"/>
<path style="fill:none;stroke-width:7.4932;stroke-linecap:round;stroke-linejoin:round;stroke:rgb(0%,0%,0%);stroke-opacity:1;stroke-miterlimit:10;" d="M 482.817027 349.054208 L 482.817027 349.054208 " transform="matrix(0.125047,0,0,-0.125047,0,73.788936)"/>
<path style="fill:none;stroke-width:7.4932;stroke-linecap:round;stroke-linejoin:round;stroke:rgb(0%,0%,0%);stroke-opacity:1;stroke-miterlimit:10;" d="M 482.817027 349.054208 L 482.817027 349.054208 " transform="matrix(0.125047,0,0,-0.125047,0,73.788936)"/>
<path style=" stroke:none;fill-rule:nonzero;fill:rgb(100%,100%,100%);fill-opacity:1;" d="M 58.425781 9.550781 L 64.976562 9.550781 L 64.976562 1.148438 L 58.425781 1.148438 L 58.425781 9.550781 "/>
<path style=" stroke:none;fill-rule:nonzero;fill:rgb(25.098041%,25.098041%,25.098041%);fill-opacity:1;" d="M 60.375 30.140625 L 63.03125 30.140625 L 63.03125 12.433594 L 60.375 12.433594 L 60.375 30.140625 "/>
<path style="fill:none;stroke-width:7.4932;stroke-linecap:round;stroke-linejoin:round;stroke:rgb(0%,0%,0%);stroke-opacity:1;stroke-miterlimit:10;" d="M 482.817027 349.054208 L 504.058977 349.054208 L 504.058977 490.656795 L 482.817027 490.656795 Z M 482.817027 349.054208 " transform="matrix(0.125047,0,0,-0.125047,0,73.788936)"/>
<path style="fill:none;stroke-width:7.4932;stroke-linecap:round;stroke-linejoin:round;stroke:rgb(0%,0%,0%);stroke-opacity:1;stroke-miterlimit:10;" d="M 504.058977 349.054208 L 504.058977 349.054208 " transform="matrix(0.125047,0,0,-0.125047,0,73.788936)"/>
<g clip-path="url(#clip1)" clip-rule="nonzero">
<path style="fill:none;stroke-width:7.4932;stroke-linecap:round;stroke-linejoin:round;stroke:rgb(0%,0%,0%);stroke-opacity:1;stroke-miterlimit:10;" d="M 504.058977 349.054208 L 787.264151 349.054208 " transform="matrix(0.125047,0,0,-0.125047,0,73.788936)"/>
</g>
<path style="fill:none;stroke-width:7.4932;stroke-linecap:round;stroke-linejoin:round;stroke:rgb(0%,0%,0%);stroke-opacity:1;stroke-miterlimit:10;" d="M 199.611853 65.849034 L 220.853803 65.849034 " transform="matrix(0.125047,0,0,-0.125047,0,73.788936)"/>
<path style="fill:none;stroke-width:7.4932;stroke-linecap:round;stroke-linejoin:round;stroke:rgb(0%,0%,0%);stroke-opacity:1;stroke-miterlimit:10;" d="M 220.853803 65.849034 L 327.032315 65.849034 " transform="matrix(0.125047,0,0,-0.125047,0,73.788936)"/>
<path style="fill:none;stroke-width:7.4932;stroke-linecap:round;stroke-linejoin:round;stroke:rgb(0%,0%,0%);stroke-opacity:1;stroke-miterlimit:10;" d="M 327.032315 65.849034 L 327.032315 65.849034 " transform="matrix(0.125047,0,0,-0.125047,0,73.788936)"/>
<path style=" stroke:none;fill-rule:nonzero;fill:rgb(25.098041%,25.098041%,25.098041%);fill-opacity:1;" d="M 40.894531 65.554688 L 47.09375 65.554688 L 47.09375 47.847656 L 40.894531 47.847656 L 40.894531 65.554688 "/>
<path style="fill:none;stroke-width:7.4932;stroke-linecap:round;stroke-linejoin:round;stroke:rgb(0%,0%,0%);stroke-opacity:1;stroke-miterlimit:10;" d="M 327.032315 65.849034 L 376.607277 65.849034 L 376.607277 207.451621 L 327.032315 207.451621 Z M 327.032315 65.849034 " transform="matrix(0.125047,0,0,-0.125047,0,73.788936)"/>
<path style="fill:none;stroke-width:7.4932;stroke-linecap:round;stroke-linejoin:round;stroke:rgb(0%,0%,0%);stroke-opacity:1;stroke-miterlimit:10;" d="M 376.607277 65.849034 L 376.607277 65.849034 " transform="matrix(0.125047,0,0,-0.125047,0,73.788936)"/>
<path style="fill:none;stroke-width:7.4932;stroke-linecap:round;stroke-linejoin:round;stroke:rgb(0%,0%,0%);stroke-opacity:1;stroke-miterlimit:10;" d="M 376.607277 65.849034 L 482.817027 65.849034 " transform="matrix(0.125047,0,0,-0.125047,0,73.788936)"/>
<path style="fill:none;stroke-width:7.4932;stroke-linecap:round;stroke-linejoin:round;stroke:rgb(0%,0%,0%);stroke-opacity:1;stroke-miterlimit:10;" d="M 482.817027 65.849034 L 482.817027 65.849034 " transform="matrix(0.125047,0,0,-0.125047,0,73.788936)"/>
<path style=" stroke:none;fill-rule:nonzero;fill:rgb(25.098041%,25.098041%,25.098041%);fill-opacity:1;" d="M 60.375 65.554688 L 63.03125 65.554688 L 63.03125 47.847656 L 60.375 47.847656 L 60.375 65.554688 "/>
<path style="fill:none;stroke-width:7.4932;stroke-linecap:round;stroke-linejoin:round;stroke:rgb(0%,0%,0%);stroke-opacity:1;stroke-miterlimit:10;" d="M 482.817027 65.849034 L 504.058977 65.849034 L 504.058977 207.451621 L 482.817027 207.451621 Z M 482.817027 65.849034 " transform="matrix(0.125047,0,0,-0.125047,0,73.788936)"/>
<path style="fill:none;stroke-width:7.4932;stroke-linecap:round;stroke-linejoin:round;stroke:rgb(0%,0%,0%);stroke-opacity:1;stroke-miterlimit:10;" d="M 504.058977 65.849034 L 504.058977 65.849034 " transform="matrix(0.125047,0,0,-0.125047,0,73.788936)"/>
<path style="fill:none;stroke-width:7.4932;stroke-linecap:round;stroke-linejoin:round;stroke:rgb(0%,0%,0%);stroke-opacity:1;stroke-miterlimit:10;" d="M 504.058977 65.849034 L 504.058977 65.849034 " transform="matrix(0.125047,0,0,-0.125047,0,73.788936)"/>
<g clip-path="url(#clip2)" clip-rule="nonzero">
<path style="fill:none;stroke-width:7.4932;stroke-linecap:round;stroke-linejoin:round;stroke:rgb(0%,0%,0%);stroke-opacity:1;stroke-miterlimit:10;" d="M 504.058977 65.849034 L 787.264151 65.849034 " transform="matrix(0.125047,0,0,-0.125047,0,73.788936)"/>
</g>
<g clip-path="url(#clip3)" clip-rule="nonzero">
<path style=" stroke:none;fill-rule:nonzero;fill:rgb(100%,72.156864%,72.156864%);fill-opacity:1;" d="M 63.03125 65.554688 L 63.382812 65.320312 L 63.738281 65 L 64.089844 65.417969 L 64.449219 67.105469 L 64.800781 69.8125 L 65.15625 72.429688 L 65.507812 73.476562 L 65.863281 71.882812 L 66.214844 67.628906 L 66.574219 61.886719 L 66.925781 56.601562 L 67.28125 53.632812 L 67.632812 53.984375 L 67.988281 57.371094 L 68.339844 62.398438 L 68.699219 67.234375 L 69.050781 70.382812 L 69.40625 71.25 L 69.757812 70.207031 L 70.113281 68.269531 L 70.464844 66.484375 L 70.824219 65.476562 L 71.175781 65.261719 L 71.53125 65.4375 L 71.882812 65.554688 L 72.238281 65.441406 L 72.589844 65.292969 L 72.949219 65.488281 L 73.300781 66.285156 L 73.65625 67.566406 L 74.007812 68.800781 L 74.363281 69.292969 L 74.714844 68.542969 L 75.074219 66.535156 L 75.425781 63.824219 L 75.78125 61.324219 L 76.132812 59.925781 L 76.488281 60.09375 L 76.839844 61.6875 L 77.195312 64.0625 L 77.550781 66.347656 L 77.90625 67.835938 L 78.257812 68.246094 L 78.613281 67.75 L 78.964844 66.835938 L 79.320312 65.992188 L 79.671875 65.519531 L 80.03125 65.417969 L 80.382812 65.5 L 80.738281 65.554688 L 81.089844 65.5 L 81.445312 65.429688 L 81.796875 65.523438 L 82.15625 65.898438 L 82.507812 66.503906 L 82.863281 67.085938 L 83.214844 67.320312 L 83.570312 66.964844 L 83.921875 66.015625 L 84.28125 64.738281 L 84.632812 63.554688 L 84.988281 62.894531 L 85.339844 62.972656 L 85.695312 63.726562 L 86.046875 64.851562 L 86.40625 65.929688 L 86.757812 66.632812 L 87.113281 66.824219 L 87.464844 66.59375 L 87.820312 66.160156 L 88.171875 65.761719 L 88.53125 65.539062 L 88.882812 65.488281 L 89.238281 65.527344 L 89.589844 65.554688 L 89.945312 65.527344 L 90.296875 65.496094 L 90.65625 65.539062 L 91.007812 65.71875 L 91.363281 66.003906 L 91.714844 66.277344 L 92.070312 66.386719 L 92.421875 66.222656 L 92.777344 65.773438 L 93.132812 65.167969 L 93.488281 64.609375 L 93.839844 64.296875 L 94.195312 64.335938 L 94.546875 64.695312 L 94.902344 65.222656 L 95.253906 65.730469 L 95.613281 66.0625 L 95.964844 66.152344 L 96.320312 66.046875 L 96.671875 65.839844 L 97.027344 65.652344 L 97.378906 65.542969 L 97.738281 65.523438 L 98.089844 65.542969 L 98.445312 65.554688 L 63.03125 65.554688 "/>
</g>
<g clip-path="url(#clip4)" clip-rule="nonzero">
<path style=" stroke:none;fill-rule:nonzero;fill:rgb(72.156864%,72.156864%,100%);fill-opacity:1;" d="M 63.03125 65.554688 L 63.382812 63.683594 L 63.738281 63.398438 L 64.089844 65.207031 L 64.449219 68.375 L 64.800781 71.414062 L 65.15625 72.875 L 65.507812 72.109375 L 65.863281 69.570312 L 66.214844 66.53125 L 66.574219 64.363281 L 66.925781 63.84375 L 67.28125 64.804688 L 67.632812 66.28125 L 67.988281 67.117188 L 68.339844 66.578125 L 68.699219 64.761719 L 69.050781 62.484375 L 69.40625 60.839844 L 69.757812 60.59375 L 70.113281 61.816406 L 70.464844 63.859375 L 70.824219 65.75 L 71.175781 66.699219 L 71.53125 66.492188 L 71.882812 65.554688 L 72.238281 64.667969 L 72.589844 64.539062 L 72.949219 65.386719 L 73.300781 66.886719 L 73.65625 68.324219 L 74.007812 69.011719 L 74.363281 68.648438 L 74.714844 67.453125 L 75.074219 66.011719 L 75.425781 64.992188 L 75.78125 64.746094 L 76.132812 65.203125 L 76.488281 65.894531 L 76.839844 66.289062 L 77.195312 66.035156 L 77.550781 65.183594 L 77.90625 64.105469 L 78.257812 63.324219 L 78.613281 63.214844 L 78.964844 63.789062 L 79.320312 64.753906 L 79.671875 65.644531 L 80.03125 66.09375 L 80.382812 65.996094 L 80.738281 65.554688 L 81.089844 65.136719 L 81.445312 65.074219 L 81.796875 65.476562 L 82.15625 66.183594 L 82.507812 66.863281 L 82.863281 67.191406 L 83.214844 67.015625 L 83.570312 66.453125 L 83.921875 65.773438 L 84.28125 65.289062 L 84.632812 65.171875 L 84.988281 65.386719 L 85.339844 65.714844 L 85.695312 65.898438 L 86.046875 65.78125 L 86.40625 65.378906 L 86.757812 64.871094 L 87.113281 64.503906 L 87.464844 64.449219 L 87.820312 64.71875 L 88.171875 65.175781 L 88.53125 65.597656 L 88.882812 65.808594 L 89.238281 65.761719 L 89.589844 65.554688 L 89.945312 65.359375 L 90.296875 65.328125 L 90.65625 65.519531 L 91.007812 65.851562 L 91.363281 66.171875 L 91.714844 66.324219 L 92.070312 66.246094 L 92.421875 65.976562 L 92.777344 65.65625 L 93.132812 65.425781 L 93.488281 65.371094 L 93.839844 65.476562 L 94.195312 65.632812 L 94.546875 65.71875 L 94.902344 65.660156 L 95.253906 65.46875 L 95.613281 65.230469 L 95.964844 65.054688 L 96.320312 65.03125 L 96.671875 65.15625 L 97.027344 65.378906 L 97.378906 65.574219 L 97.738281 65.675781 L 98.089844 65.652344 L 98.445312 65.554688 L 63.03125 65.554688 "/>
</g>
<g clip-path="url(#clip5)" clip-rule="nonzero">
<path style="fill:none;stroke-width:4.99547;stroke-linecap:round;stroke-linejoin:round;stroke:rgb(100%,21.960784%,21.960784%);stroke-opacity:1;stroke-miterlimit:10;" d="M 504.058977 65.849034 L 506.870412 67.723324 L 509.713084 70.284853 L 512.524519 66.94237 L 515.39843 53.447484 L 518.209864 31.799438 L 521.052537 10.86987 L 523.863972 2.498043 L 526.706644 15.243212 L 529.518079 49.261571 L 532.39199 95.181668 L 535.203424 137.446901 L 538.046097 161.187904 L 540.857532 158.376469 L 543.700204 131.292983 L 546.511639 91.089469 L 549.38555 52.416625 L 552.196984 27.238667 L 555.039657 20.303795 L 557.851091 28.644384 L 560.693764 44.138512 L 563.505199 58.414352 L 566.37911 66.473798 L 569.190544 68.191897 L 572.033217 66.786179 L 574.844651 65.849034 L 577.687324 66.754941 L 580.498759 67.941991 L 583.37267 66.380083 L 586.184104 60.007498 L 589.026777 49.761381 L 591.838211 39.890122 L 594.680884 35.954114 L 597.492319 41.951841 L 600.36623 58.008256 L 603.177664 79.68754 L 606.020337 99.679964 L 608.831771 110.863225 L 611.674444 109.519984 L 614.485879 96.774814 L 617.328551 77.782012 L 620.171224 59.507688 L 623.013897 47.605948 L 625.825331 44.325941 L 628.668004 48.293188 L 631.479439 55.602917 L 634.322111 62.35036 L 637.133546 66.130178 L 640.007457 66.94237 L 642.818891 66.286369 L 645.661564 65.849034 L 648.472999 66.286369 L 651.315671 66.848656 L 654.127106 66.09894 L 657.001017 63.100076 L 659.812451 58.258161 L 662.655124 53.603675 L 665.466558 51.729385 L 668.309231 54.572058 L 671.120666 62.162931 L 673.994577 72.37781 L 676.806011 81.842973 L 679.648684 87.122223 L 682.460118 86.497459 L 685.302791 80.468494 L 688.114226 71.471904 L 690.988137 62.850171 L 693.799571 57.227302 L 696.642244 55.696632 L 699.453678 57.539683 L 702.296351 61.007119 L 705.107786 64.193412 L 707.981697 65.973987 L 710.793131 66.380083 L 713.635804 66.067702 L 716.447238 65.849034 L 719.289911 66.067702 L 722.101346 66.317607 L 724.975257 65.973987 L 727.786691 64.537032 L 730.629364 62.256646 L 733.440798 60.069975 L 736.283471 59.195306 L 739.094906 60.507309 L 741.937578 64.099697 L 744.780251 68.941612 L 747.622924 73.40867 L 750.434358 75.907722 L 753.277031 75.595341 L 756.088466 72.72143 L 758.931138 68.504278 L 761.742573 64.443317 L 764.616484 61.788073 L 767.427918 61.069596 L 770.270591 61.913026 L 773.082026 63.568649 L 775.924698 65.06808 L 778.736133 65.942749 L 781.610044 66.09894 L 784.421478 65.942749 L 787.264151 65.849034 " transform="matrix(0.125047,0,0,-0.125047,0,73.788936)"/>
</g>
<g clip-path="url(#clip6)" clip-rule="nonzero">
<path style="fill:none;stroke-width:4.99547;stroke-linecap:round;stroke-linejoin:round;stroke:rgb(21.960784%,21.960784%,100%);stroke-opacity:1;stroke-miterlimit:10;" d="M 504.058977 65.849034 L 506.870412 80.812114 L 509.713084 83.0925 L 512.524519 68.629231 L 515.39843 43.295082 L 518.209864 18.991792 L 521.052537 7.308719 L 523.863972 13.431399 L 526.706644 33.736204 L 529.518079 58.039494 L 532.39199 75.376674 L 535.203424 79.531349 L 538.046097 71.846761 L 540.857532 60.038736 L 543.700204 53.35377 L 546.511639 57.664636 L 549.38555 72.190381 L 552.196984 90.40223 L 555.039657 103.553496 L 557.851091 105.5215 L 560.693764 95.743955 L 563.505199 79.406397 L 566.37911 64.287126 L 569.190544 56.696253 L 572.033217 58.351876 L 574.844651 65.849034 L 577.687324 72.940097 L 580.498759 73.970956 L 583.37267 67.192275 L 586.184104 55.196821 L 589.026777 43.701178 L 591.838211 38.203261 L 594.680884 41.10841 L 597.492319 50.667288 L 600.36623 62.19417 L 603.177664 70.34733 L 606.020337 72.315334 L 608.831771 68.660469 L 611.674444 63.131314 L 614.485879 59.97626 L 617.328551 62.006741 L 620.171224 68.81666 L 623.013897 77.438392 L 625.825331 83.686025 L 628.668004 84.560693 L 631.479439 79.968684 L 634.322111 72.252858 L 637.133546 65.130557 L 640.007457 61.538168 L 642.818891 62.319122 L 645.661564 65.849034 L 648.472999 69.191518 L 651.315671 69.691328 L 654.127106 66.473798 L 657.001017 60.81969 L 659.812451 55.38425 L 662.655124 52.760245 L 665.466558 54.165962 L 668.309231 58.664257 L 671.120666 64.099697 L 673.994577 67.973229 L 676.806011 68.910374 L 679.648684 67.192275 L 682.460118 64.56827 L 685.302791 63.100076 L 688.114226 64.037221 L 690.988137 67.254752 L 693.799571 71.315713 L 696.642244 74.2521 L 699.453678 74.689434 L 702.296351 72.534001 L 705.107786 68.879136 L 707.981697 65.505415 L 710.793131 63.818554 L 713.635804 64.193412 L 716.447238 65.849034 L 719.289911 67.410943 L 722.101346 67.660848 L 724.975257 66.130178 L 727.786691 63.474934 L 730.629364 60.913405 L 733.440798 59.695117 L 736.283471 60.31988 L 739.094906 62.475313 L 741.937578 65.036842 L 744.780251 66.879894 L 747.622924 67.317228 L 750.434358 66.473798 L 753.277031 65.224271 L 756.088466 64.537032 L 758.931138 65.005604 L 761.742573 66.536274 L 764.616484 68.441802 L 767.427918 69.847519 L 770.270591 70.034948 L 773.082026 69.035327 L 775.924698 67.254752 L 778.736133 65.692844 L 781.610044 64.880651 L 784.421478 65.06808 L 787.264151 65.849034 " transform="matrix(0.125047,0,0,-0.125047,0,73.788936)"/>
</g>
<g clip-path="url(#clip7)" clip-rule="nonzero">
<path style="fill:none;stroke-width:7.4932;stroke-linecap:round;stroke-linejoin:round;stroke:rgb(0%,0%,0%);stroke-opacity:1;stroke-miterlimit:10;" d="M 787.264151 65.849034 L 787.264151 65.849034 " transform="matrix(0.125047,0,0,-0.125047,0,73.788936)"/>
</g>
<path style=" stroke:none;fill-rule:nonzero;fill:rgb(0%,0%,0%);fill-opacity:1;" d="M 5.003906 15.277344 L 4.769531 15.277344 C 4.125 15.863281 3.324219 15.902344 2.71875 15.921875 L 2.71875 16.566406 C 3.109375 16.546875 3.597656 16.527344 4.105469 16.332031 L 4.105469 21.394531 L 2.777344 21.394531 L 2.777344 22.019531 L 6.332031 22.019531 L 6.332031 21.394531 L 5.003906 21.394531 Z M 5.003906 15.277344 "/>
<path style=" stroke:none;fill-rule:nonzero;fill:rgb(0%,0%,0%);fill-opacity:1;" d="M 16.015625 17.515625 L 14.804688 17.515625 L 14.804688 21.636719 L 10.152344 21.636719 L 10.152344 17.515625 L 8.941406 17.515625 L 8.941406 26.972656 L 10.152344 26.972656 L 10.152344 22.476562 L 14.804688 22.476562 L 14.804688 26.972656 L 16.015625 26.972656 Z M 16.015625 17.515625 "/>
<path style=" stroke:none;fill-rule:nonzero;fill:rgb(0%,0%,0%);fill-opacity:1;" d="M 34.679688 17.242188 C 34.582031 17.046875 34.523438 16.988281 34.347656 16.988281 C 34.191406 16.988281 34.132812 17.046875 34.054688 17.203125 L 30.1875 24.746094 C 30.128906 24.84375 30.109375 24.902344 30.109375 24.921875 C 30.109375 25.019531 30.1875 25.019531 30.363281 25.019531 L 38.332031 25.019531 C 38.527344 25.019531 38.605469 25.019531 38.605469 24.921875 C 38.605469 24.902344 38.605469 24.882812 38.546875 24.765625 Z M 33.976562 18.105469 L 37.101562 24.160156 L 30.871094 24.160156 Z M 33.976562 18.105469 "/>
<path style=" stroke:none;fill-rule:nonzero;fill:rgb(0%,0%,0%);fill-opacity:1;" d="M 54.1875 17.242188 C 54.089844 17.046875 54.03125 16.988281 53.855469 16.988281 C 53.699219 16.988281 53.640625 17.046875 53.5625 17.203125 L 49.695312 24.746094 C 49.636719 24.84375 49.617188 24.902344 49.617188 24.921875 C 49.617188 25.019531 49.695312 25.019531 49.871094 25.019531 L 57.839844 25.019531 C 58.035156 25.019531 58.113281 25.019531 58.113281 24.921875 C 58.113281 24.902344 58.113281 24.882812 58.054688 24.765625 Z M 53.484375 18.105469 L 56.609375 24.160156 L 50.378906 24.160156 Z M 53.484375 18.105469 "/>
<path style=" stroke:none;fill-rule:nonzero;fill:rgb(0%,0%,0%);fill-opacity:1;" d="M 64.261719 1.730469 L 63.382812 1.730469 C 62.523438 3.78125 61.917969 5.265625 61.859375 6.050781 C 61.820312 5.539062 61.351562 4.386719 61.214844 4.054688 C 60.761719 2.902344 60.566406 2.53125 60.214844 1.730469 L 59.277344 1.730469 L 61.527344 6.714844 L 61.117188 7.710938 C 60.824219 8.335938 60.605469 8.335938 60.449219 8.335938 C 60.273438 8.335938 59.863281 8.296875 59.53125 8.140625 L 59.609375 8.921875 C 59.628906 8.941406 60.058594 9.019531 60.429688 9.019531 C 60.742188 9.019531 61.214844 9.019531 61.78125 7.671875 Z M 64.261719 1.730469 "/>
<path style=" stroke:none;fill-rule:nonzero;fill:rgb(0%,0%,0%);fill-opacity:1;" d="M 13.292969 56.5 L 16.578125 52.027344 L 15.265625 52.027344 L 12.707031 55.582031 L 10.050781 52.027344 L 8.644531 52.027344 L 12.121094 56.5 L 8.449219 61.484375 L 9.757812 61.484375 L 12.707031 57.304688 L 15.738281 61.484375 L 17.144531 61.484375 Z M 13.292969 56.5 "/>
</g>
</svg>
