<?xml version="1.0" encoding="UTF-8"?>
<svg xmlns="http://www.w3.org/2000/svg" xmlns:xlink="http://www.w3.org/1999/xlink" width="164px" height="74px" viewBox="0 0 164 74" version="1.1">
<defs>
<clipPath id="clip1">
  <path d="M 128 60.203125 L 164 60.203125 L 164 73 L 128 73 Z M 128 60.203125 "/>
</clipPath>
<clipPath id="clip2">
  <path d="M 128 47.675781 L 162.871094 47.675781 L 162.871094 73.9375 L 128 73.9375 Z M 128 47.675781 "/>
</clipPath>
<clipPath id="clip3">
  <path d="M 127 60.203125 L 164 60.203125 L 164 73.9375 L 127 73.9375 Z M 127 60.203125 "/>
</clipPath>
<clipPath id="clip4">
  <path d="M 127 47 L 164 47 L 164 73.9375 L 127 73.9375 Z M 127 47 "/>
</clipPath>
</defs>
<g id="surface1">
<path style="fill:none;stroke-width:7.49977;stroke-linecap:round;stroke-linejoin:round;stroke:rgb(0%,0%,0%);stroke-opacity:1;stroke-miterlimit:10;" d="M 199.76092 350.547225 L 199.76092 350.547225 " transform="matrix(0.125286,0,0,-0.125286,0,73.934455)"/>
<path style=" stroke:none;fill-rule:nonzero;fill:rgb(25.098041%,25.098041%,25.098041%);fill-opacity:1;" d="M 25.027344 30.015625 L 27.691406 30.015625 L 27.691406 12.257812 L 25.027344 12.257812 L 25.027344 30.015625 "/>
<path style="fill:none;stroke-width:7.49977;stroke-linecap:round;stroke-linejoin:round;stroke:rgb(0%,0%,0%);stroke-opacity:1;stroke-miterlimit:10;" d="M 199.76092 350.547225 L 221.024686 350.547225 L 221.024686 492.284878 L 199.76092 492.284878 Z M 199.76092 350.547225 " transform="matrix(0.125286,0,0,-0.125286,0,73.934455)"/>
<path style="fill:none;stroke-width:7.49977;stroke-linecap:round;stroke-linejoin:round;stroke:rgb(0%,0%,0%);stroke-opacity:1;stroke-miterlimit:10;" d="M 221.024686 350.547225 L 221.024686 350.547225 " transform="matrix(0.125286,0,0,-0.125286,0,73.934455)"/>
<path style="fill:none;stroke-width:7.49977;stroke-linecap:round;stroke-linejoin:round;stroke:rgb(0%,0%,0%);stroke-opacity:1;stroke-miterlimit:10;" d="M 221.024686 350.547225 L 221.024686 350.547225 " transform="matrix(0.125286,0,0,-0.125286,0,73.934455)"/>
<path style=" stroke:none;fill-rule:nonzero;fill:rgb(100%,100%,100%);fill-opacity:1;" d="M 30.113281 26.476562 L 46.578125 26.476562 L 46.578125 15.792969 L 30.113281 15.792969 L 30.113281 26.476562 "/>
<path style="fill:none;stroke-width:7.49977;stroke-linecap:round;stroke-linejoin:round;stroke:rgb(0%,0%,0%);stroke-opacity:1;stroke-miterlimit:10;" d="M 221.024686 350.547225 L 391.103634 350.547225 " transform="matrix(0.125286,0,0,-0.125286,0,73.934455)"/>
<path style="fill:none;stroke-width:7.49977;stroke-linecap:round;stroke-linejoin:round;stroke:rgb(0%,0%,0%);stroke-opacity:1;stroke-miterlimit:10;" d="M 391.103634 350.547225 L 391.103634 350.547225 " transform="matrix(0.125286,0,0,-0.125286,0,73.934455)"/>
<path style="fill:none;stroke-width:7.49977;stroke-linecap:round;stroke-linejoin:round;stroke:rgb(0%,0%,0%);stroke-opacity:1;stroke-miterlimit:10;" d="M 391.103634 350.547225 L 391.103634 350.547225 " transform="matrix(0.125286,0,0,-0.125286,0,73.934455)"/>
<path style=" stroke:none;fill-rule:nonzero;fill:rgb(25.098041%,25.098041%,25.098041%);fill-opacity:1;" d="M 49 30.015625 L 55.214844 30.015625 L 55.214844 12.257812 L 49 12.257812 L 49 30.015625 "/>
<path style="fill:none;stroke-width:7.49977;stroke-linecap:round;stroke-linejoin:round;stroke:rgb(0%,0%,0%);stroke-opacity:1;stroke-miterlimit:10;" d="M 391.103634 350.547225 L 440.708695 350.547225 L 440.708695 492.284878 L 391.103634 492.284878 Z M 391.103634 350.547225 " transform="matrix(0.125286,0,0,-0.125286,0,73.934455)"/>
<path style="fill:none;stroke-width:7.49977;stroke-linecap:round;stroke-linejoin:round;stroke:rgb(0%,0%,0%);stroke-opacity:1;stroke-miterlimit:10;" d="M 440.708695 350.547225 L 440.708695 350.547225 " transform="matrix(0.125286,0,0,-0.125286,0,73.934455)"/>
<path style="fill:none;stroke-width:7.49977;stroke-linecap:round;stroke-linejoin:round;stroke:rgb(0%,0%,0%);stroke-opacity:1;stroke-miterlimit:10;" d="M 440.708695 350.547225 L 440.708695 350.547225 " transform="matrix(0.125286,0,0,-0.125286,0,73.934455)"/>
<path style=" stroke:none;fill-rule:nonzero;fill:rgb(100%,100%,100%);fill-opacity:1;" d="M 57.636719 26.476562 L 74.101562 26.476562 L 74.101562 15.792969 L 57.636719 15.792969 L 57.636719 26.476562 "/>
<path style="fill:none;stroke-width:7.49977;stroke-linecap:round;stroke-linejoin:round;stroke:rgb(0%,0%,0%);stroke-opacity:1;stroke-miterlimit:10;" d="M 440.708695 350.547225 L 610.787643 350.547225 " transform="matrix(0.125286,0,0,-0.125286,0,73.934455)"/>
<path style="fill:none;stroke-width:7.49977;stroke-linecap:round;stroke-linejoin:round;stroke:rgb(0%,0%,0%);stroke-opacity:1;stroke-miterlimit:10;" d="M 610.787643 350.547225 L 610.787643 350.547225 " transform="matrix(0.125286,0,0,-0.125286,0,73.934455)"/>
<path style="fill:none;stroke-width:7.49977;stroke-linecap:round;stroke-linejoin:round;stroke:rgb(0%,0%,0%);stroke-opacity:1;stroke-miterlimit:10;" d="M 610.787643 350.547225 L 610.787643 350.547225 " transform="matrix(0.125286,0,0,-0.125286,0,73.934455)"/>
<path style=" stroke:none;fill-rule:nonzero;fill:rgb(100%,100%,100%);fill-opacity:1;" d="M 74.570312 9.367188 L 81.136719 9.367188 L 81.136719 0.945312 L 74.570312 0.945312 L 74.570312 9.367188 "/>
<path style=" stroke:none;fill-rule:nonzero;fill:rgb(25.098041%,25.098041%,25.098041%);fill-opacity:1;" d="M 76.523438 30.015625 L 79.183594 30.015625 L 79.183594 12.257812 L 76.523438 12.257812 L 76.523438 30.015625 "/>
<path style="fill:none;stroke-width:7.49977;stroke-linecap:round;stroke-linejoin:round;stroke:rgb(0%,0%,0%);stroke-opacity:1;stroke-miterlimit:10;" d="M 610.787643 350.547225 L 632.020231 350.547225 L 632.020231 492.284878 L 610.787643 492.284878 Z M 610.787643 350.547225 " transform="matrix(0.125286,0,0,-0.125286,0,73.934455)"/>
<path style="fill:none;stroke-width:7.49977;stroke-linecap:round;stroke-linejoin:round;stroke:rgb(0%,0%,0%);stroke-opacity:1;stroke-miterlimit:10;" d="M 632.020231 350.547225 L 632.020231 350.547225 " transform="matrix(0.125286,0,0,-0.125286,0,73.934455)"/>
<path style="fill:none;stroke-width:7.49977;stroke-linecap:round;stroke-linejoin:round;stroke:rgb(0%,0%,0%);stroke-opacity:1;stroke-miterlimit:10;" d="M 632.020231 350.547225 L 802.099179 350.547225 " transform="matrix(0.125286,0,0,-0.125286,0,73.934455)"/>
<path style="fill:none;stroke-width:7.49977;stroke-linecap:round;stroke-linejoin:round;stroke:rgb(0%,0%,0%);stroke-opacity:1;stroke-miterlimit:10;" d="M 802.099179 350.547225 L 802.099179 350.547225 " transform="matrix(0.125286,0,0,-0.125286,0,73.934455)"/>
<path style=" stroke:none;fill-rule:nonzero;fill:rgb(25.098041%,25.098041%,25.098041%);fill-opacity:1;" d="M 100.492188 30.015625 L 106.707031 30.015625 L 106.707031 12.257812 L 100.492188 12.257812 L 100.492188 30.015625 "/>
<path style="fill:none;stroke-width:7.49977;stroke-linecap:round;stroke-linejoin:round;stroke:rgb(0%,0%,0%);stroke-opacity:1;stroke-miterlimit:10;" d="M 802.099179 350.547225 L 851.70424 350.547225 L 851.70424 492.284878 L 802.099179 492.284878 Z M 802.099179 350.547225 " transform="matrix(0.125286,0,0,-0.125286,0,73.934455)"/>
<path style="fill:none;stroke-width:7.49977;stroke-linecap:round;stroke-linejoin:round;stroke:rgb(0%,0%,0%);stroke-opacity:1;stroke-miterlimit:10;" d="M 851.70424 350.547225 L 851.70424 350.547225 " transform="matrix(0.125286,0,0,-0.125286,0,73.934455)"/>
<path style="fill:none;stroke-width:7.49977;stroke-linecap:round;stroke-linejoin:round;stroke:rgb(0%,0%,0%);stroke-opacity:1;stroke-miterlimit:10;" d="M 851.70424 350.547225 L 1021.783188 350.547225 " transform="matrix(0.125286,0,0,-0.125286,0,73.934455)"/>
<path style="fill:none;stroke-width:7.49977;stroke-linecap:round;stroke-linejoin:round;stroke:rgb(0%,0%,0%);stroke-opacity:1;stroke-miterlimit:10;" d="M 1021.783188 350.547225 L 1305.227316 350.547225 " transform="matrix(0.125286,0,0,-0.125286,0,73.934455)"/>
<path style="fill:none;stroke-width:7.49977;stroke-linecap:round;stroke-linejoin:round;stroke:rgb(0%,0%,0%);stroke-opacity:1;stroke-miterlimit:10;" d="M 199.76092 67.103097 L 221.024686 67.103097 " transform="matrix(0.125286,0,0,-0.125286,0,73.934455)"/>
<path style="fill:none;stroke-width:7.49977;stroke-linecap:round;stroke-linejoin:round;stroke:rgb(0%,0%,0%);stroke-opacity:1;stroke-miterlimit:10;" d="M 221.024686 67.103097 L 391.103634 67.103097 " transform="matrix(0.125286,0,0,-0.125286,0,73.934455)"/>
<path style="fill:none;stroke-width:7.49977;stroke-linecap:round;stroke-linejoin:round;stroke:rgb(0%,0%,0%);stroke-opacity:1;stroke-miterlimit:10;" d="M 391.103634 67.103097 L 391.103634 67.103097 " transform="matrix(0.125286,0,0,-0.125286,0,73.934455)"/>
<path style=" stroke:none;fill-rule:nonzero;fill:rgb(25.098041%,25.098041%,25.098041%);fill-opacity:1;" d="M 49 65.527344 L 55.214844 65.527344 L 55.214844 47.773438 L 49 47.773438 L 49 65.527344 "/>
<path style="fill:none;stroke-width:7.49977;stroke-linecap:round;stroke-linejoin:round;stroke:rgb(0%,0%,0%);stroke-opacity:1;stroke-miterlimit:10;" d="M 391.103634 67.103097 L 440.708695 67.103097 L 440.708695 208.809571 L 391.103634 208.809571 Z M 391.103634 67.103097 " transform="matrix(0.125286,0,0,-0.125286,0,73.934455)"/>
<path style="fill:none;stroke-width:7.49977;stroke-linecap:round;stroke-linejoin:round;stroke:rgb(0%,0%,0%);stroke-opacity:1;stroke-miterlimit:10;" d="M 440.708695 67.103097 L 440.708695 67.103097 " transform="matrix(0.125286,0,0,-0.125286,0,73.934455)"/>
<path style="fill:none;stroke-width:7.49977;stroke-linecap:round;stroke-linejoin:round;stroke:rgb(0%,0%,0%);stroke-opacity:1;stroke-miterlimit:10;" d="M 440.708695 67.103097 L 610.787643 67.103097 " transform="matrix(0.125286,0,0,-0.125286,0,73.934455)"/>
<path style="fill:none;stroke-width:7.49977;stroke-linecap:round;stroke-linejoin:round;stroke:rgb(0%,0%,0%);stroke-opacity:1;stroke-miterlimit:10;" d="M 610.787643 67.103097 L 610.787643 67.103097 " transform="matrix(0.125286,0,0,-0.125286,0,73.934455)"/>
<path style=" stroke:none;fill-rule:nonzero;fill:rgb(25.098041%,25.098041%,25.098041%);fill-opacity:1;" d="M 76.523438 65.527344 L 79.183594 65.527344 L 79.183594 47.773438 L 76.523438 47.773438 L 76.523438 65.527344 "/>
<path style="fill:none;stroke-width:7.49977;stroke-linecap:round;stroke-linejoin:round;stroke:rgb(0%,0%,0%);stroke-opacity:1;stroke-miterlimit:10;" d="M 610.787643 67.103097 L 632.020231 67.103097 L 632.020231 208.809571 L 610.787643 208.809571 Z M 610.787643 67.103097 " transform="matrix(0.125286,0,0,-0.125286,0,73.934455)"/>
<path style="fill:none;stroke-width:7.49977;stroke-linecap:round;stroke-linejoin:round;stroke:rgb(0%,0%,0%);stroke-opacity:1;stroke-miterlimit:10;" d="M 632.020231 67.103097 L 632.020231 67.103097 " transform="matrix(0.125286,0,0,-0.125286,0,73.934455)"/>
<path style="fill:none;stroke-width:7.49977;stroke-linecap:round;stroke-linejoin:round;stroke:rgb(0%,0%,0%);stroke-opacity:1;stroke-miterlimit:10;" d="M 632.020231 67.103097 L 632.020231 67.103097 " transform="matrix(0.125286,0,0,-0.125286,0,73.934455)"/>
<path style=" stroke:none;fill-rule:nonzero;fill:rgb(100%,100%,100%);fill-opacity:1;" d="M 81.609375 61.988281 L 98.070312 61.988281 L 98.070312 51.3125 L 81.609375 51.3125 L 81.609375 61.988281 "/>
<path style="fill:none;stroke-width:7.49977;stroke-linecap:round;stroke-linejoin:round;stroke:rgb(0%,0%,0%);stroke-opacity:1;stroke-miterlimit:10;" d="M 632.020231 67.103097 L 802.099179 67.103097 " transform="matrix(0.125286,0,0,-0.125286,0,73.934455)"/>
<path style="fill:none;stroke-width:7.49977;stroke-linecap:round;stroke-linejoin:round;stroke:rgb(0%,0%,0%);stroke-opacity:1;stroke-miterlimit:10;" d="M 802.099179 67.103097 L 802.099179 67.103097 " transform="matrix(0.125286,0,0,-0.125286,0,73.934455)"/>
<path style="fill:none;stroke-width:7.49977;stroke-linecap:round;stroke-linejoin:round;stroke:rgb(0%,0%,0%);stroke-opacity:1;stroke-miterlimit:10;" d="M 802.099179 67.103097 L 802.099179 67.103097 " transform="matrix(0.125286,0,0,-0.125286,0,73.934455)"/>
<path style=" stroke:none;fill-rule:nonzero;fill:rgb(25.098041%,25.098041%,25.098041%);fill-opacity:1;" d="M 100.492188 65.527344 L 106.707031 65.527344 L 106.707031 47.773438 L 100.492188 47.773438 L 100.492188 65.527344 "/>
<path style="fill:none;stroke-width:7.49977;stroke-linecap:round;stroke-linejoin:round;stroke:rgb(0%,0%,0%);stroke-opacity:1;stroke-miterlimit:10;" d="M 802.099179 67.103097 L 851.70424 67.103097 L 851.70424 208.809571 L 802.099179 208.809571 Z M 802.099179 67.103097 " transform="matrix(0.125286,0,0,-0.125286,0,73.934455)"/>
<path style="fill:none;stroke-width:7.49977;stroke-linecap:round;stroke-linejoin:round;stroke:rgb(0%,0%,0%);stroke-opacity:1;stroke-miterlimit:10;" d="M 851.70424 67.103097 L 851.70424 67.103097 " transform="matrix(0.125286,0,0,-0.125286,0,73.934455)"/>
<path style="fill:none;stroke-width:7.49977;stroke-linecap:round;stroke-linejoin:round;stroke:rgb(0%,0%,0%);stroke-opacity:1;stroke-miterlimit:10;" d="M 851.70424 67.103097 L 851.70424 67.103097 " transform="matrix(0.125286,0,0,-0.125286,0,73.934455)"/>
<path style=" stroke:none;fill-rule:nonzero;fill:rgb(100%,100%,100%);fill-opacity:1;" d="M 109.132812 61.988281 L 125.59375 61.988281 L 125.59375 51.3125 L 109.132812 51.3125 L 109.132812 61.988281 "/>
<path style="fill:none;stroke-width:7.49977;stroke-linecap:round;stroke-linejoin:round;stroke:rgb(0%,0%,0%);stroke-opacity:1;stroke-miterlimit:10;" d="M 851.70424 67.103097 L 1021.783188 67.103097 " transform="matrix(0.125286,0,0,-0.125286,0,73.934455)"/>
<path style="fill:none;stroke-width:7.49977;stroke-linecap:round;stroke-linejoin:round;stroke:rgb(0%,0%,0%);stroke-opacity:1;stroke-miterlimit:10;" d="M 1021.783188 67.103097 L 1021.783188 67.103097 " transform="matrix(0.125286,0,0,-0.125286,0,73.934455)"/>
<path style="fill:none;stroke-width:7.49977;stroke-linecap:round;stroke-linejoin:round;stroke:rgb(0%,0%,0%);stroke-opacity:1;stroke-miterlimit:10;" d="M 1021.783188 67.103097 L 1021.783188 67.103097 " transform="matrix(0.125286,0,0,-0.125286,0,73.934455)"/>
<path style="fill:none;stroke-width:7.49977;stroke-linecap:round;stroke-linejoin:round;stroke:rgb(0%,0%,0%);stroke-opacity:1;stroke-miterlimit:10;" d="M 1021.783188 67.103097 L 1305.227316 67.103097 " transform="matrix(0.125286,0,0,-0.125286,0,73.934455)"/>
<g clip-path="url(#clip1)" clip-rule="nonzero">
<path style=" stroke:none;fill-rule:nonzero;fill:rgb(100%,72.156864%,72.156864%);fill-opacity:1;" d="M 128.015625 65.527344 L 128.375 63.648438 L 128.726562 63.371094 L 129.085938 65.179688 L 129.4375 68.363281 L 129.792969 71.410156 L 130.144531 72.875 L 130.503906 72.101562 L 130.855469 69.554688 L 131.214844 66.507812 L 131.570312 64.332031 L 131.921875 63.816406 L 132.28125 64.777344 L 132.632812 66.257812 L 132.988281 67.09375 L 133.34375 66.554688 L 133.699219 64.734375 L 134.050781 62.453125 L 134.410156 60.804688 L 134.765625 60.554688 L 135.117188 61.777344 L 135.476562 63.828125 L 135.828125 65.722656 L 136.183594 66.679688 L 136.539062 66.472656 L 136.894531 65.527344 L 137.253906 64.640625 L 137.605469 64.511719 L 137.960938 65.363281 L 138.3125 66.863281 L 138.671875 68.308594 L 139.023438 68.996094 L 139.382812 68.636719 L 139.738281 67.429688 L 140.089844 65.992188 L 140.449219 64.964844 L 140.800781 64.71875 L 141.15625 65.175781 L 141.511719 65.875 L 141.867188 66.265625 L 142.226562 66.011719 L 142.578125 65.15625 L 142.933594 64.074219 L 143.285156 63.296875 L 143.644531 63.179688 L 143.996094 63.757812 L 144.355469 64.726562 L 144.710938 65.621094 L 145.0625 66.070312 L 145.421875 65.972656 L 145.773438 65.527344 L 146.128906 65.113281 L 146.480469 65.046875 L 146.839844 65.449219 L 147.191406 66.160156 L 147.550781 66.839844 L 147.90625 67.167969 L 148.257812 66.996094 L 148.617188 66.429688 L 148.96875 65.746094 L 149.324219 65.261719 L 149.679688 65.144531 L 150.035156 65.363281 L 150.386719 65.6875 L 150.746094 65.878906 L 151.101562 65.757812 L 151.453125 65.351562 L 151.8125 64.84375 L 152.164062 64.476562 L 152.523438 64.421875 L 152.875 64.691406 L 153.230469 65.152344 L 153.589844 65.570312 L 153.941406 65.789062 L 154.296875 65.738281 L 154.652344 65.527344 L 155.007812 65.332031 L 155.359375 65.300781 L 155.71875 65.492188 L 156.070312 65.828125 L 156.425781 66.148438 L 156.785156 66.300781 L 157.136719 66.222656 L 157.492188 65.953125 L 157.847656 65.628906 L 158.203125 65.402344 L 158.5625 65.347656 L 158.914062 65.449219 L 159.265625 65.605469 L 159.621094 65.695312 L 159.980469 65.636719 L 160.332031 65.445312 L 160.691406 65.203125 L 161.042969 65.027344 L 161.398438 65.003906 L 161.757812 65.132812 L 162.109375 65.351562 L 162.464844 65.546875 L 162.820312 65.648438 L 163.175781 65.625 L 163.527344 65.527344 L 128.015625 65.527344 "/>
</g>
<g clip-path="url(#clip2)" clip-rule="nonzero">
<path style=" stroke:none;fill-rule:nonzero;fill:rgb(72.156864%,72.156864%,100%);fill-opacity:1;" d="M 128.015625 65.527344 L 128.015625 47.773438 L 128.375 50.664062 L 128.726562 57.125 L 129.085938 64.648438 L 129.4375 70.675781 L 129.792969 73.621094 L 130.144531 73.347656 L 130.503906 70.964844 L 130.855469 68.082031 L 131.214844 65.988281 L 131.570312 65.140625 L 131.921875 65.199219 L 132.28125 65.480469 L 132.632812 65.484375 L 132.988281 65.230469 L 133.34375 65.195312 L 133.699219 65.898438 L 134.050781 67.480469 L 134.410156 69.4375 L 134.765625 70.824219 L 135.117188 70.691406 L 135.476562 68.621094 L 135.828125 65.027344 L 136.183594 61.050781 L 136.539062 58.074219 L 136.894531 57.140625 L 137.253906 58.507812 L 137.605469 61.558594 L 137.960938 65.113281 L 138.3125 67.960938 L 138.671875 69.351562 L 139.023438 69.222656 L 139.382812 68.097656 L 139.738281 66.738281 L 140.089844 65.746094 L 140.449219 65.347656 L 140.800781 65.375 L 141.15625 65.507812 L 141.511719 65.507812 L 141.867188 65.386719 L 142.226562 65.371094 L 142.578125 65.703125 L 142.933594 66.453125 L 143.285156 67.371094 L 143.644531 68.027344 L 143.996094 67.964844 L 144.355469 66.992188 L 144.710938 65.292969 L 145.0625 63.414062 L 145.421875 62.007812 L 145.773438 61.570312 L 146.128906 62.214844 L 146.480469 63.652344 L 146.839844 65.332031 L 147.191406 66.679688 L 147.550781 67.332031 L 147.90625 67.273438 L 148.257812 66.742188 L 148.617188 66.101562 L 148.96875 65.628906 L 149.324219 65.441406 L 149.679688 65.453125 L 150.035156 65.519531 L 150.386719 65.519531 L 150.746094 65.464844 L 151.101562 65.453125 L 151.453125 65.609375 L 151.8125 65.964844 L 152.164062 66.398438 L 152.523438 66.710938 L 152.875 66.679688 L 153.230469 66.21875 L 153.589844 65.414062 L 153.941406 64.53125 L 154.296875 63.863281 L 154.652344 63.660156 L 155.007812 63.960938 L 155.359375 64.640625 L 155.71875 65.433594 L 156.070312 66.070312 L 156.425781 66.378906 L 156.785156 66.355469 L 157.136719 66.101562 L 157.492188 65.796875 L 157.847656 65.578125 L 158.203125 65.488281 L 158.5625 65.492188 L 158.914062 65.523438 L 159.265625 65.523438 L 159.621094 65.5 L 159.980469 65.492188 L 160.332031 65.566406 L 160.691406 65.734375 L 161.042969 65.9375 L 161.398438 66.085938 L 161.757812 66.070312 L 162.109375 65.855469 L 162.417969 65.527344 L 128.015625 65.527344 "/>
</g>
<g clip-path="url(#clip3)" clip-rule="nonzero">
<path style="fill:none;stroke-width:4.99985;stroke-linecap:round;stroke-linejoin:round;stroke:rgb(100%,21.960784%,21.960784%);stroke-opacity:1;stroke-miterlimit:10;" d="M 1021.783188 67.103097 L 1024.651614 82.099976 L 1027.457683 84.313652 L 1030.326108 69.877987 L 1033.132177 44.467475 L 1035.969425 20.148212 L 1038.775493 8.456259 L 1041.643919 14.62961 L 1044.449988 34.95802 L 1047.318414 59.277283 L 1050.155661 76.643731 L 1052.96173 80.759298 L 1055.830156 73.089377 L 1058.636225 61.272709 L 1061.473472 54.600501 L 1064.31072 58.90314 L 1067.147967 73.432341 L 1069.954036 91.640609 L 1072.822462 104.797954 L 1075.659709 106.793381 L 1078.465778 97.034497 L 1081.334204 80.665763 L 1084.140272 65.54417 L 1086.97752 57.905427 L 1089.814767 59.557889 L 1092.652015 67.103097 L 1095.52044 74.180626 L 1098.326509 75.209518 L 1101.163757 68.412595 L 1103.969825 56.440035 L 1106.838251 44.903975 L 1109.64432 39.416551 L 1112.512746 42.284977 L 1115.349993 51.919147 L 1118.156062 63.39285 L 1121.024488 71.592807 L 1123.830557 73.557055 L 1126.667804 69.909165 L 1129.505052 64.328206 L 1132.342299 61.210352 L 1135.210725 63.236957 L 1138.016794 70.065058 L 1140.854041 78.701514 L 1143.66011 84.906044 L 1146.528536 85.841401 L 1149.334604 81.226976 L 1152.20303 73.494698 L 1155.040278 66.354812 L 1157.846346 62.769279 L 1160.714772 63.548743 L 1163.520841 67.103097 L 1166.358088 70.408022 L 1169.164157 70.938057 L 1172.032583 67.726668 L 1174.838652 62.052173 L 1177.707078 56.627106 L 1180.544325 54.008109 L 1183.350394 55.379965 L 1186.21882 59.900853 L 1189.024889 65.357098 L 1191.862136 69.223238 L 1194.699383 70.158594 L 1197.536631 68.412595 L 1200.3427 65.824776 L 1203.211125 64.297028 L 1206.048373 65.263563 L 1208.854442 68.506131 L 1211.722868 72.559342 L 1214.528936 75.490125 L 1217.397362 75.926624 L 1220.203431 73.775305 L 1223.040678 70.096237 L 1225.909104 66.760133 L 1228.715173 65.014134 L 1231.55242 65.419455 L 1234.389668 67.103097 L 1237.226915 68.662024 L 1240.032984 68.911452 L 1242.90141 67.383704 L 1245.707479 64.702349 L 1248.544726 62.145708 L 1251.413152 60.929745 L 1254.219221 61.553316 L 1257.056468 63.704636 L 1259.893715 66.292455 L 1262.730963 68.10081 L 1265.599389 68.53731 L 1268.405457 67.726668 L 1271.211526 66.479526 L 1274.048774 65.762419 L 1276.917199 66.230098 L 1279.723268 67.757846 L 1282.591694 69.690916 L 1285.397763 71.09395 L 1288.23501 71.281021 L 1291.103436 70.252129 L 1293.909505 68.506131 L 1296.746752 66.947204 L 1299.584 66.136562 L 1302.421247 66.323633 L 1305.227316 67.103097 " transform="matrix(0.125286,0,0,-0.125286,0,73.934455)"/>
</g>
<g clip-path="url(#clip4)" clip-rule="nonzero">
<path style="fill:none;stroke-width:4.99985;stroke-linecap:round;stroke-linejoin:round;stroke:rgb(21.960784%,21.960784%,100%);stroke-opacity:1;stroke-miterlimit:10;" d="M 1021.783188 208.809571 L 1024.651614 185.73745 L 1027.457683 134.168141 L 1030.326108 74.118269 L 1033.132177 26.009778 L 1035.969425 2.501157 L 1038.775493 4.683655 L 1041.643919 23.702566 L 1044.449988 46.71233 L 1047.318414 63.424029 L 1050.155661 70.189772 L 1052.96173 69.722094 L 1055.830156 67.477239 L 1058.636225 67.446061 L 1061.473472 69.472666 L 1064.31072 69.753273 L 1067.147967 64.141135 L 1069.954036 51.513826 L 1072.822462 35.893376 L 1075.659709 24.824993 L 1078.465778 25.885064 L 1081.334204 42.409691 L 1084.140272 71.09395 L 1086.97752 102.833706 L 1089.814767 126.591755 L 1092.652015 134.043427 L 1095.52044 123.130937 L 1098.326509 98.780496 L 1101.163757 70.408022 L 1103.969825 47.678865 L 1106.838251 36.579304 L 1109.64432 37.608196 L 1112.512746 46.587616 L 1115.349993 57.437749 L 1118.156062 65.357098 L 1121.024488 68.53731 L 1123.830557 68.31906 L 1126.667804 67.258989 L 1129.505052 67.258989 L 1132.342299 68.225524 L 1135.210725 68.350238 L 1138.016794 65.700062 L 1140.854041 59.713782 L 1143.66011 52.386825 L 1146.528536 47.14883 L 1149.334604 47.647686 L 1152.20303 55.411143 L 1155.040278 68.973809 L 1157.846346 83.970688 L 1160.714772 95.194963 L 1163.520841 98.68696 L 1166.358088 93.542501 L 1169.164157 82.068797 L 1172.032583 68.662024 L 1174.838652 57.905427 L 1177.707078 52.69861 L 1180.544325 53.166288 L 1183.350394 57.40657 L 1186.21882 62.519851 L 1189.024889 66.292455 L 1191.862136 67.789025 L 1194.699383 67.695489 L 1197.536631 67.165454 L 1200.3427 67.165454 L 1203.211125 67.601953 L 1206.048373 67.695489 L 1208.854442 66.448347 L 1211.722868 63.6111 L 1214.528936 60.150282 L 1217.397362 57.655998 L 1220.203431 57.905427 L 1223.040678 61.584495 L 1225.909104 68.007274 L 1228.715173 75.053625 L 1231.55242 80.385156 L 1234.389668 82.00644 L 1237.226915 79.605692 L 1240.032984 74.180626 L 1242.90141 67.851382 L 1245.707479 62.769279 L 1248.544726 60.306174 L 1251.413152 60.493246 L 1254.219221 62.519851 L 1257.056468 64.951777 L 1259.893715 66.697776 L 1262.730963 67.414882 L 1265.599389 67.383704 L 1268.405457 67.134275 L 1271.211526 67.134275 L 1274.048774 67.321346 L 1276.917199 67.383704 L 1279.723268 66.791311 L 1282.591694 65.450634 L 1285.397763 63.82935 L 1288.23501 62.644565 L 1291.103436 62.769279 L 1293.909505 64.484099 L 1296.746752 67.539596 L 1299.584 70.844522 L 1302.421247 73.338805 L 1305.227316 74.118269 " transform="matrix(0.125286,0,0,-0.125286,0,73.934455)"/>
</g>
<path style="fill:none;stroke-width:7.49977;stroke-linecap:round;stroke-linejoin:round;stroke:rgb(0%,0%,0%);stroke-opacity:1;stroke-miterlimit:10;" d="M 1305.227316 67.103097 L 1305.227316 67.103097 " transform="matrix(0.125286,0,0,-0.125286,0,73.934455)"/>
<path style=" stroke:none;fill-rule:nonzero;fill:rgb(0%,0%,0%);fill-opacity:1;" d="M 5.015625 15.160156 L 4.78125 15.160156 C 4.132812 15.75 3.332031 15.789062 2.722656 15.808594 L 2.722656 16.453125 C 3.117188 16.433594 3.605469 16.414062 4.113281 16.21875 L 4.113281 21.289062 L 2.78125 21.289062 L 2.78125 21.914062 L 6.34375 21.914062 L 6.34375 21.289062 L 5.015625 21.289062 Z M 5.015625 15.160156 "/>
<path style=" stroke:none;fill-rule:nonzero;fill:rgb(0%,0%,0%);fill-opacity:1;" d="M 16.046875 17.402344 L 14.832031 17.402344 L 14.832031 21.53125 L 10.171875 21.53125 L 10.171875 17.402344 L 8.960938 17.402344 L 8.960938 26.875 L 10.171875 26.875 L 10.171875 22.375 L 14.832031 22.375 L 14.832031 26.875 L 16.046875 26.875 Z M 16.046875 17.402344 "/>
<path style=" stroke:none;fill-rule:nonzero;fill:rgb(0%,0%,0%);fill-opacity:1;" d="M 35.949219 16.230469 C 35.851562 16.03125 35.792969 15.972656 35.617188 15.972656 C 35.460938 15.972656 35.402344 16.03125 35.324219 16.191406 L 31.445312 23.746094 C 31.386719 23.84375 31.367188 23.902344 31.367188 23.921875 C 31.367188 24.019531 31.445312 24.019531 31.625 24.019531 L 39.609375 24.019531 C 39.804688 24.019531 39.882812 24.019531 39.882812 23.921875 C 39.882812 23.902344 39.882812 23.882812 39.824219 23.765625 Z M 35.246094 17.089844 L 38.375 23.160156 L 32.132812 23.160156 Z M 35.246094 17.089844 "/>
<path style=" stroke:none;fill-rule:nonzero;fill:rgb(0%,0%,0%);fill-opacity:1;" d="M 43.359375 20.265625 C 43.359375 20.03125 43.359375 20.03125 43.105469 20.03125 C 42.539062 20.578125 41.753906 20.578125 41.402344 20.578125 L 41.402344 20.890625 C 41.597656 20.890625 42.183594 20.890625 42.65625 20.65625 L 42.65625 25.101562 C 42.65625 25.394531 42.65625 25.511719 41.792969 25.511719 L 41.460938 25.511719 L 41.460938 25.824219 C 41.617188 25.824219 42.695312 25.785156 43.007812 25.785156 C 43.28125 25.785156 44.378906 25.824219 44.574219 25.824219 L 44.574219 25.511719 L 44.242188 25.511719 C 43.359375 25.511719 43.359375 25.394531 43.359375 25.101562 Z M 43.359375 20.265625 "/>
<path style=" stroke:none;fill-rule:nonzero;fill:rgb(0%,0%,0%);fill-opacity:1;" d="M 63.460938 16.230469 C 63.363281 16.03125 63.304688 15.972656 63.128906 15.972656 C 62.972656 15.972656 62.914062 16.03125 62.835938 16.191406 L 58.960938 23.746094 C 58.902344 23.84375 58.882812 23.902344 58.882812 23.921875 C 58.882812 24.019531 58.960938 24.019531 59.136719 24.019531 L 67.125 24.019531 C 67.320312 24.019531 67.398438 24.019531 67.398438 23.921875 C 67.398438 23.902344 67.398438 23.882812 67.339844 23.765625 Z M 62.757812 17.089844 L 65.890625 23.160156 L 59.644531 23.160156 Z M 62.757812 17.089844 "/>
<path style=" stroke:none;fill-rule:nonzero;fill:rgb(0%,0%,0%);fill-opacity:1;" d="M 70.871094 20.265625 C 70.871094 20.03125 70.871094 20.03125 70.617188 20.03125 C 70.050781 20.578125 69.265625 20.578125 68.914062 20.578125 L 68.914062 20.890625 C 69.109375 20.890625 69.699219 20.890625 70.167969 20.65625 L 70.167969 25.101562 C 70.167969 25.394531 70.167969 25.511719 69.304688 25.511719 L 68.972656 25.511719 L 68.972656 25.824219 C 69.128906 25.824219 70.207031 25.785156 70.519531 25.785156 C 70.792969 25.785156 71.890625 25.824219 72.085938 25.824219 L 72.085938 25.511719 L 71.753906 25.511719 C 70.871094 25.511719 70.871094 25.394531 70.871094 25.101562 Z M 70.871094 20.265625 "/>
<path style=" stroke:none;fill-rule:nonzero;fill:rgb(0%,0%,0%);fill-opacity:1;" d="M 80.320312 1.589844 L 79.441406 1.589844 C 78.578125 3.644531 77.972656 5.132812 77.914062 5.914062 C 77.875 5.40625 77.402344 4.25 77.265625 3.917969 C 76.816406 2.761719 76.621094 2.390625 76.269531 1.589844 L 75.328125 1.589844 L 77.578125 6.582031 L 77.167969 7.578125 C 76.875 8.203125 76.660156 8.203125 76.503906 8.203125 C 76.328125 8.203125 75.914062 8.164062 75.582031 8.007812 L 75.660156 8.792969 C 75.679688 8.8125 76.113281 8.890625 76.484375 8.890625 C 76.796875 8.890625 77.265625 8.890625 77.835938 7.539062 Z M 80.320312 1.589844 "/>
<path style=" stroke:none;fill-rule:nonzero;fill:rgb(0%,0%,0%);fill-opacity:1;" d="M 13.320312 56.464844 L 16.609375 51.980469 L 15.296875 51.980469 L 12.730469 55.542969 L 10.070312 51.980469 L 8.660156 51.980469 L 12.144531 56.464844 L 8.464844 61.457031 L 9.777344 61.457031 L 12.730469 57.265625 L 15.765625 61.457031 L 17.175781 61.457031 Z M 13.320312 56.464844 "/>
<path style=" stroke:none;fill-rule:nonzero;fill:rgb(0%,0%,0%);fill-opacity:1;" d="M 87.367188 51.859375 C 87.269531 51.664062 87.210938 51.605469 87.035156 51.605469 C 86.878906 51.605469 86.820312 51.664062 86.742188 51.820312 L 82.863281 59.378906 C 82.804688 59.476562 82.785156 59.535156 82.785156 59.554688 C 82.785156 59.652344 82.863281 59.652344 83.039062 59.652344 L 91.027344 59.652344 C 91.222656 59.652344 91.300781 59.652344 91.300781 59.554688 C 91.300781 59.535156 91.300781 59.515625 91.242188 59.398438 Z M 86.660156 52.722656 L 89.792969 58.789062 L 83.550781 58.789062 Z M 86.660156 52.722656 "/>
<path style=" stroke:none;fill-rule:nonzero;fill:rgb(0%,0%,0%);fill-opacity:1;" d="M 96.265625 59.871094 L 95.972656 59.871094 C 95.953125 60.066406 95.851562 60.574219 95.734375 60.652344 C 95.675781 60.710938 95.011719 60.710938 94.875 60.710938 L 93.269531 60.710938 C 94.191406 59.910156 94.503906 59.65625 95.011719 59.242188 C 95.65625 58.734375 96.265625 58.1875 96.265625 57.363281 C 96.265625 56.308594 95.34375 55.660156 94.230469 55.660156 C 93.152344 55.660156 92.40625 56.425781 92.40625 57.226562 C 92.40625 57.65625 92.78125 57.714844 92.878906 57.714844 C 93.074219 57.714844 93.328125 57.558594 93.328125 57.246094 C 93.328125 57.089844 93.269531 56.777344 92.820312 56.777344 C 93.09375 56.171875 93.679688 55.972656 94.089844 55.972656 C 94.972656 55.972656 95.421875 56.660156 95.421875 57.363281 C 95.421875 58.128906 94.875 58.714844 94.601562 59.027344 L 92.507812 61.121094 C 92.40625 61.203125 92.40625 61.222656 92.40625 61.457031 L 96.011719 61.457031 Z M 96.265625 59.871094 "/>
<path style=" stroke:none;fill-rule:nonzero;fill:rgb(0%,0%,0%);fill-opacity:1;" d="M 114.878906 51.859375 C 114.78125 51.664062 114.722656 51.605469 114.546875 51.605469 C 114.390625 51.605469 114.332031 51.664062 114.253906 51.820312 L 110.378906 59.378906 C 110.320312 59.476562 110.300781 59.535156 110.300781 59.554688 C 110.300781 59.652344 110.378906 59.652344 110.554688 59.652344 L 118.539062 59.652344 C 118.738281 59.652344 118.816406 59.652344 118.816406 59.554688 C 118.816406 59.535156 118.816406 59.515625 118.757812 59.398438 Z M 114.175781 52.722656 L 117.308594 58.789062 L 111.0625 58.789062 Z M 114.175781 52.722656 "/>
<path style=" stroke:none;fill-rule:nonzero;fill:rgb(0%,0%,0%);fill-opacity:1;" d="M 123.777344 59.871094 L 123.484375 59.871094 C 123.464844 60.066406 123.367188 60.574219 123.25 60.652344 C 123.191406 60.710938 122.523438 60.710938 122.386719 60.710938 L 120.78125 60.710938 C 121.703125 59.910156 122.015625 59.65625 122.523438 59.242188 C 123.171875 58.734375 123.777344 58.1875 123.777344 57.363281 C 123.777344 56.308594 122.859375 55.660156 121.742188 55.660156 C 120.664062 55.660156 119.921875 56.425781 119.921875 57.226562 C 119.921875 57.65625 120.292969 57.714844 120.390625 57.714844 C 120.585938 57.714844 120.839844 57.558594 120.839844 57.246094 C 120.839844 57.089844 120.78125 56.777344 120.332031 56.777344 C 120.605469 56.171875 121.195312 55.972656 121.605469 55.972656 C 122.484375 55.972656 122.9375 56.660156 122.9375 57.363281 C 122.9375 58.128906 122.386719 58.714844 122.113281 59.027344 L 120.019531 61.121094 C 119.921875 61.203125 119.921875 61.222656 119.921875 61.457031 L 123.523438 61.457031 Z M 123.777344 59.871094 "/>
</g>
</svg>
